<svg width="21" height="20" viewBox="0 0 21 20" fill="none" xmlns="http://www.w3.org/2000/svg">
<g clip-path="url(#clip0_621_567)">
<path d="M16.3999 9.02344L16.8413 8.58203L15.5171 7.25781L13.0913 4.83203L11.7671 3.50781L11.3257 3.94922L10.4429 4.83203L2.66164 12.6133C2.25539 13.0195 1.95852 13.5234 1.79446 14.0742L0.411642 18.7773C0.313986 19.1055 0.40383 19.4609 0.649924 19.7031C0.896018 19.9453 1.24758 20.0352 1.57571 19.9414L6.27492 18.5586C6.82571 18.3945 7.32961 18.0977 7.73586 17.6914L15.5171 9.91016L16.3999 9.02344ZM6.62258 15.6016L6.26711 16.4883C6.11086 16.6094 5.93508 16.6992 5.74758 16.7578L2.69289 17.6562L3.59133 14.6055C3.64602 14.4141 3.73977 14.2383 3.86086 14.0859L4.74758 13.7305V14.9805C4.74758 15.3242 5.02883 15.6055 5.37258 15.6055H6.62258V15.6016ZM14.5406 0.730469L13.978 1.29688L13.0952 2.17969L12.6499 2.62109L13.9741 3.94531L16.3999 6.37109L17.7241 7.69531L18.1656 7.25391L19.0484 6.37109L19.6148 5.80469C20.5913 4.82813 20.5913 3.24609 19.6148 2.26953L18.0796 0.730469C17.1031 -0.246094 15.521 -0.246094 14.5445 0.730469H14.5406ZM12.689 7.29297L7.06399 12.918C6.8218 13.1602 6.42336 13.1602 6.18117 12.918C5.93899 12.6758 5.93899 12.2773 6.18117 12.0352L11.8062 6.41016C12.0484 6.16797 12.4468 6.16797 12.689 6.41016C12.9312 6.65234 12.9312 7.05078 12.689 7.29297Z" fill="#545E75"/>
</g>
<defs>
<clipPath id="clip0_621_567">
<rect width="20" height="20" fill="white" transform="translate(0.372559)"/>
</clipPath>
</defs>
</svg>
