<svg width="160" height="31" viewBox="0 0 160 31" fill="none" xmlns="http://www.w3.org/2000/svg">
<path d="M15.4297 26.2812H0.78125L0.78125 10.8516C0.78125 -0.0859375 15.4297 0.109375 15.4297 10.8516L15.4297 26.2812Z" stroke="#E25F5F" stroke-width="1.5625"/>
<mask id="path-2-inside-1_218_172" fill="white">
<path fill-rule="evenodd" clip-rule="evenodd" d="M17.5781 10.2656V30.1875H37.1094V9.875C37.1094 4.69733 32.912 0.5 27.7344 0.5H27.3438C21.9503 0.5 17.5781 4.87222 17.5781 10.2656ZM19.5312 10.8516L19.5312 22.668L19.5312 25.4084V26.0669V26.2281V26.268V26.278V26.2804V26.281V26.2812L20.3125 26.2812H19.5312V27.0625H20.3125H34.9609H35.7422V26.2812H34.9609L35.7422 26.2812V26.281V26.2808V26.2804V26.2799V26.2793V26.2786V26.2778V26.2769V26.2759V26.2747V26.2735V26.2722V26.2707V26.2691V26.2675V26.2657V26.2638V26.2618V26.2597V26.2575V26.2552V26.2527V26.2502V26.2476V26.2448V26.2419V26.239V26.2359V26.2327V26.2294V26.226V26.2225V26.2188V26.2151V26.2113V26.2073V26.2032V26.1991V26.1948V26.1904V26.1859V26.1813V26.1765V26.1717V26.1667V26.1617V26.1565V26.1513V26.1459V26.1404V26.1348V26.129V26.1232V26.1173V26.1112V26.1051V26.0988V26.0924V26.0859V26.0793V26.0726V26.0658V26.0589V26.0518V26.0446V26.0374V26.03V26.0225V26.0149V26.0072V25.9994V25.9914V25.9834V25.9752V25.9669V25.9585V25.95V25.9414V25.9327V25.9239V25.9149V25.9059V25.8967V25.8874V25.878V25.8685V25.8589V25.8492V25.8393V25.8293V25.8193V25.8091V25.7988V25.7884V25.7779V25.7672V25.7565V25.7456V25.7346V25.7235V25.7123V25.701V25.6896V25.678V25.6664V25.6546V25.6427V25.6307V25.6186V25.6064V25.594V25.5816V25.569V25.5563V25.5435V25.5306V25.5176V25.5044V25.4912V25.4778V25.4643V25.4507V25.437V25.4232V25.4092V25.3952V25.381V25.3667V25.3523V25.3378V25.3231V25.3084V25.2935V25.2785V25.2634V25.2482V25.2329V25.2174V25.2019V25.1862V25.1704V25.1545V25.1385V25.1223V25.1061V25.0897V25.0732V25.0566V25.0399V25.023V25.0061V24.989V24.9718V24.9545V24.9371V24.9196V24.9019V24.8841V24.8662V24.8482V24.8301V24.8119V24.7935V24.775V24.7564V24.7377V24.7189V24.7V24.6809V24.6617V24.6424V24.623V24.6035V24.5838V24.564V24.5441V24.5241V24.504V24.4838V24.4634V24.4429V24.4223V24.4016V24.3808V24.3598V24.3388V24.3176V24.2963V24.2748V24.2533V24.2316V24.2098V24.1879V24.1659V24.1438V24.1215V24.0991V24.0766V24.054V24.0313V24.0084V23.9854V23.9623V23.9391V23.9158V23.8923V23.8687V23.845V23.8212V23.7973V23.7732V23.749V23.7247V23.7003V23.6758V23.6511V23.6263V23.6014V23.5764V23.5513V23.526V23.5006V23.4751V23.4495V23.4237V23.3979V23.3719V23.3458V23.3195V23.2932V23.2667V23.2401V23.2134V23.1866V23.1596V23.1325V23.1053V23.078V23.0505V23.023V22.9953V22.9675V22.9395V22.9115V22.8833V22.855V22.8265V22.798V22.7693V22.7405V22.7116V22.6826V22.6534V22.6241V22.5947V22.5652V22.5355V22.5058V22.4759V22.4458V22.4157V22.3854V22.355V22.3245V22.2939V22.2631V22.2322V22.2012V22.1701V22.1388V22.1075V22.0759V22.0443V22.0126V21.9807V21.9487V21.9166V21.8843V21.8519V21.8194V21.7868V21.7541V21.7212V21.6882V21.6551V21.6218V21.5885V21.555V21.5213V21.4876V21.4537V21.4197V21.3856V21.3514V21.317V21.2825V21.2479V21.2131V21.1782V21.1432V21.1081V21.0729V21.0375V21.002V20.9664V20.9306V20.8947V20.8587V20.8226V20.7863V20.7499V20.7134V20.6768V20.64V20.6031V20.5661V20.529V20.4917V20.4543V20.4168V20.3791V20.3413V20.3034V20.2654V20.2272V20.189V20.1505V20.112V20.0733V20.0345V19.9956V19.9566V19.9174V19.8781V19.8386V19.7991V19.7594V19.7196V19.6796V19.6395V19.5993V19.559V19.5186V19.478V19.4372V19.3964V19.3554V19.3143V19.2731V19.2317V19.1903V19.1486V19.1069V19.065V19.023V18.9809V18.9386V18.8962V18.8537V18.8111V18.7683V18.7254V18.6823V18.6392V18.5959V18.5524V18.5089V18.4652V18.4214V18.3774V18.3334V18.2892V18.2448V18.2004V18.1558V18.111V18.0662V18.0212V17.9761V17.9308V17.8855V17.84V17.7943V17.7485V17.7026V17.6566V17.6104V17.5642V17.5177V17.4712V17.4245V17.3777V17.3307V17.2836V17.2364V17.1891V17.1416V17.094V17.0463V16.9984V16.9504V16.9022V16.854V16.8056V16.7571V16.7084V16.6596V16.6107V16.5616V16.5124V16.4631V16.4136V16.364V16.3143V16.2645V16.2145V16.1644V16.1141V16.0637V16.0132V15.9626V15.9118V15.8609V15.8098V15.7586V15.7073V15.6559V15.6043V15.5526V15.5007V15.4487V15.3966V15.3443V15.292V15.2394V15.1868V15.134V15.0811V15.028V14.9748V14.9215V14.868V14.8145V14.7607V14.7069V14.6529V14.5987V14.5445V14.4901V14.4355V14.3809V14.3261V14.2711V14.216V14.1608V14.1055V14.05V13.9944V13.9386V13.8828V13.8267V13.7706V13.7143V13.6579V13.6013V13.5446V13.4878V13.4308V13.3737V13.3164V13.2591V13.2015V13.1439V13.0861V13.0282V12.9701V12.9119V12.8536V12.7951V12.7365V12.6778V12.6189V12.5599V12.5007V12.4414V12.382V12.3224V12.2627V12.2029V12.1429V12.0828V12.0225V11.9621V11.9016V11.8409V11.7801V11.7192V11.6581V11.5969V11.5356V11.4741V11.4124V11.3507V11.2888V11.2267V11.1645V11.1022V11.0398V10.9772V10.9144V10.8516C35.7422 7.9788 34.7578 5.74536 33.2215 4.22611C31.6935 2.7151 29.6628 1.95392 27.6419 1.94045C25.6207 1.92697 23.5854 2.66157 22.0532 4.16994C20.5131 5.68612 19.5312 7.93404 19.5312 10.8516ZM34.1797 25.5H21.0938V25.4084V22.668V10.8516C21.0938 8.30033 21.943 6.4711 23.1494 5.28342C24.3638 4.08794 25.9906 3.49197 27.6315 3.50291C29.2728 3.51385 30.9042 4.13207 32.1228 5.33712C33.3331 6.53394 34.1797 8.35323 34.1797 10.8516V10.9144V10.9772V11.0398V11.1022V11.1645V11.2267V11.2888V11.3507V11.4124V11.4741V11.5356V11.5969V11.6581V11.7192V11.7801V11.8409V11.9016V11.9621V12.0225V12.0828V12.1429V12.2029V12.2627V12.3224V12.382V12.4414V12.5007V12.5599V12.6189V12.6778V12.7365V12.7951V12.8536V12.9119V12.9701V13.0282V13.0861V13.1439V13.2015V13.2591V13.3164V13.3737V13.4308V13.4878V13.5446V13.6013V13.6579V13.7143V13.7706V13.8267V13.8828V13.9386V13.9944V14.05V14.1055V14.1608V14.216V14.2711V14.3261V14.3809V14.4355V14.4901V14.5445V14.5987V14.6529V14.7069V14.7607V14.8145V14.868V14.9215V14.9748V15.028V15.0811V15.134V15.1868V15.2394V15.292V15.3443V15.3966V15.4487V15.5007V15.5526V15.6043V15.6559V15.7073V15.7586V15.8098V15.8609V15.9118V15.9626V16.0132V16.0637V16.1141V16.1644V16.2145V16.2645V16.3143V16.364V16.4136V16.4631V16.5124V16.5616V16.6107V16.6596V16.7084V16.7571V16.8056V16.854V16.9022V16.9504V16.9984V17.0463V17.094V17.1416V17.1891V17.2364V17.2836V17.3307V17.3777V17.4245V17.4712V17.5177V17.5642V17.6104V17.6566V17.7026V17.7485V17.7943V17.84V17.8855V17.9308V17.9761V18.0212V18.0662V18.111V18.1558V18.2004V18.2448V18.2892V18.3334V18.3774V18.4214V18.4652V18.5089V18.5524V18.5959V18.6392V18.6823V18.7254V18.7683V18.8111V18.8537V18.8962V18.9386V18.9809V19.023V19.065V19.1069V19.1486V19.1903V19.2317V19.2731V19.3143V19.3554V19.3964V19.4372V19.478V19.5186V19.559V19.5993V19.6395V19.6796V19.7196V19.7594V19.7991V19.8386V19.8781V19.9174V19.9566V19.9956V20.0345V20.0733V20.112V20.1505V20.189V20.2272V20.2654V20.3034V20.3413V20.3791V20.4168V20.4543V20.4917V20.529V20.5661V20.6031V20.64V20.6768V20.7134V20.7499V20.7863V20.8226V20.8587V20.8947V20.9306V20.9664V21.002V21.0375V21.0729V21.1081V21.1432V21.1782V21.2131V21.2479V21.2825V21.317V21.3514V21.3856V21.4197V21.4537V21.4876V21.5213V21.555V21.5885V21.6218V21.6551V21.6882V21.7212V21.7541V21.7868V21.8194V21.8519V21.8843V21.9166V21.9487V21.9807V22.0126V22.0443V22.0759V22.1075V22.1388V22.1701V22.2012V22.2322V22.2631V22.2939V22.3245V22.355V22.3854V22.4157V22.4458V22.4759V22.5058V22.5355V22.5652V22.5947V22.6241V22.6534V22.6826V22.7116V22.7405V22.7693V22.798V22.8265V22.855V22.8833V22.9115V22.9395V22.9675V22.9953V23.023V23.0505V23.078V23.1053V23.1325V23.1596V23.1866V23.2134V23.2401V23.2667V23.2932V23.3195V23.3458V23.3719V23.3979V23.4237V23.4495V23.4751V23.5006V23.526V23.5513V23.5764V23.6014V23.6263V23.6511V23.6758V23.7003V23.7247V23.749V23.7732V23.7973V23.8212V23.845V23.8687V23.8923V23.9158V23.9391V23.9623V23.9854V24.0084V24.0313V24.054V24.0766V24.0991V24.1215V24.1438V24.1659V24.1879V24.2098V24.2316V24.2533V24.2748V24.2963V24.3176V24.3388V24.3598V24.3808V24.4016V24.4223V24.4429V24.4634V24.4838V24.504V24.5241V24.5441V24.564V24.5838V24.6035V24.623V24.6424V24.6617V24.6809V24.7V24.7189V24.7377V24.7564V24.775V24.7935V24.8119V24.8301V24.8482V24.8662V24.8841V24.9019V24.9196V24.9371V24.9545V24.9718V24.989V25.0061V25.023V25.0399V25.0566V25.0732V25.0897V25.1061V25.1223V25.1385V25.1545V25.1704V25.1862V25.2019V25.2174V25.2329V25.2482V25.2634V25.2785V25.2935V25.3084V25.3231V25.3378V25.3523V25.3667V25.381V25.3952V25.4092V25.4232V25.437V25.4507V25.4643V25.4778V25.4912V25.5Z"/>
</mask>
<path fill-rule="evenodd" clip-rule="evenodd" d="M17.5781 10.2656V30.1875H37.1094V9.875C37.1094 4.69733 32.912 0.5 27.7344 0.5H27.3438C21.9503 0.5 17.5781 4.87222 17.5781 10.2656ZM19.5312 10.8516L19.5312 22.668L19.5312 25.4084V26.0669V26.2281V26.268V26.278V26.2804V26.281V26.2812L20.3125 26.2812H19.5312V27.0625H20.3125H34.9609H35.7422V26.2812H34.9609L35.7422 26.2812V26.281V26.2808V26.2804V26.2799V26.2793V26.2786V26.2778V26.2769V26.2759V26.2747V26.2735V26.2722V26.2707V26.2691V26.2675V26.2657V26.2638V26.2618V26.2597V26.2575V26.2552V26.2527V26.2502V26.2476V26.2448V26.2419V26.239V26.2359V26.2327V26.2294V26.226V26.2225V26.2188V26.2151V26.2113V26.2073V26.2032V26.1991V26.1948V26.1904V26.1859V26.1813V26.1765V26.1717V26.1667V26.1617V26.1565V26.1513V26.1459V26.1404V26.1348V26.129V26.1232V26.1173V26.1112V26.1051V26.0988V26.0924V26.0859V26.0793V26.0726V26.0658V26.0589V26.0518V26.0446V26.0374V26.03V26.0225V26.0149V26.0072V25.9994V25.9914V25.9834V25.9752V25.9669V25.9585V25.95V25.9414V25.9327V25.9239V25.9149V25.9059V25.8967V25.8874V25.878V25.8685V25.8589V25.8492V25.8393V25.8293V25.8193V25.8091V25.7988V25.7884V25.7779V25.7672V25.7565V25.7456V25.7346V25.7235V25.7123V25.701V25.6896V25.678V25.6664V25.6546V25.6427V25.6307V25.6186V25.6064V25.594V25.5816V25.569V25.5563V25.5435V25.5306V25.5176V25.5044V25.4912V25.4778V25.4643V25.4507V25.437V25.4232V25.4092V25.3952V25.381V25.3667V25.3523V25.3378V25.3231V25.3084V25.2935V25.2785V25.2634V25.2482V25.2329V25.2174V25.2019V25.1862V25.1704V25.1545V25.1385V25.1223V25.1061V25.0897V25.0732V25.0566V25.0399V25.023V25.0061V24.989V24.9718V24.9545V24.9371V24.9196V24.9019V24.8841V24.8662V24.8482V24.8301V24.8119V24.7935V24.775V24.7564V24.7377V24.7189V24.7V24.6809V24.6617V24.6424V24.623V24.6035V24.5838V24.564V24.5441V24.5241V24.504V24.4838V24.4634V24.4429V24.4223V24.4016V24.3808V24.3598V24.3388V24.3176V24.2963V24.2748V24.2533V24.2316V24.2098V24.1879V24.1659V24.1438V24.1215V24.0991V24.0766V24.054V24.0313V24.0084V23.9854V23.9623V23.9391V23.9158V23.8923V23.8687V23.845V23.8212V23.7973V23.7732V23.749V23.7247V23.7003V23.6758V23.6511V23.6263V23.6014V23.5764V23.5513V23.526V23.5006V23.4751V23.4495V23.4237V23.3979V23.3719V23.3458V23.3195V23.2932V23.2667V23.2401V23.2134V23.1866V23.1596V23.1325V23.1053V23.078V23.0505V23.023V22.9953V22.9675V22.9395V22.9115V22.8833V22.855V22.8265V22.798V22.7693V22.7405V22.7116V22.6826V22.6534V22.6241V22.5947V22.5652V22.5355V22.5058V22.4759V22.4458V22.4157V22.3854V22.355V22.3245V22.2939V22.2631V22.2322V22.2012V22.1701V22.1388V22.1075V22.0759V22.0443V22.0126V21.9807V21.9487V21.9166V21.8843V21.8519V21.8194V21.7868V21.7541V21.7212V21.6882V21.6551V21.6218V21.5885V21.555V21.5213V21.4876V21.4537V21.4197V21.3856V21.3514V21.317V21.2825V21.2479V21.2131V21.1782V21.1432V21.1081V21.0729V21.0375V21.002V20.9664V20.9306V20.8947V20.8587V20.8226V20.7863V20.7499V20.7134V20.6768V20.64V20.6031V20.5661V20.529V20.4917V20.4543V20.4168V20.3791V20.3413V20.3034V20.2654V20.2272V20.189V20.1505V20.112V20.0733V20.0345V19.9956V19.9566V19.9174V19.8781V19.8386V19.7991V19.7594V19.7196V19.6796V19.6395V19.5993V19.559V19.5186V19.478V19.4372V19.3964V19.3554V19.3143V19.2731V19.2317V19.1903V19.1486V19.1069V19.065V19.023V18.9809V18.9386V18.8962V18.8537V18.8111V18.7683V18.7254V18.6823V18.6392V18.5959V18.5524V18.5089V18.4652V18.4214V18.3774V18.3334V18.2892V18.2448V18.2004V18.1558V18.111V18.0662V18.0212V17.9761V17.9308V17.8855V17.84V17.7943V17.7485V17.7026V17.6566V17.6104V17.5642V17.5177V17.4712V17.4245V17.3777V17.3307V17.2836V17.2364V17.1891V17.1416V17.094V17.0463V16.9984V16.9504V16.9022V16.854V16.8056V16.7571V16.7084V16.6596V16.6107V16.5616V16.5124V16.4631V16.4136V16.364V16.3143V16.2645V16.2145V16.1644V16.1141V16.0637V16.0132V15.9626V15.9118V15.8609V15.8098V15.7586V15.7073V15.6559V15.6043V15.5526V15.5007V15.4487V15.3966V15.3443V15.292V15.2394V15.1868V15.134V15.0811V15.028V14.9748V14.9215V14.868V14.8145V14.7607V14.7069V14.6529V14.5987V14.5445V14.4901V14.4355V14.3809V14.3261V14.2711V14.216V14.1608V14.1055V14.05V13.9944V13.9386V13.8828V13.8267V13.7706V13.7143V13.6579V13.6013V13.5446V13.4878V13.4308V13.3737V13.3164V13.2591V13.2015V13.1439V13.0861V13.0282V12.9701V12.9119V12.8536V12.7951V12.7365V12.6778V12.6189V12.5599V12.5007V12.4414V12.382V12.3224V12.2627V12.2029V12.1429V12.0828V12.0225V11.9621V11.9016V11.8409V11.7801V11.7192V11.6581V11.5969V11.5356V11.4741V11.4124V11.3507V11.2888V11.2267V11.1645V11.1022V11.0398V10.9772V10.9144V10.8516C35.7422 7.9788 34.7578 5.74536 33.2215 4.22611C31.6935 2.7151 29.6628 1.95392 27.6419 1.94045C25.6207 1.92697 23.5854 2.66157 22.0532 4.16994C20.5131 5.68612 19.5312 7.93404 19.5312 10.8516ZM34.1797 25.5H21.0938V25.4084V22.668V10.8516C21.0938 8.30033 21.943 6.4711 23.1494 5.28342C24.3638 4.08794 25.9906 3.49197 27.6315 3.50291C29.2728 3.51385 30.9042 4.13207 32.1228 5.33712C33.3331 6.53394 34.1797 8.35323 34.1797 10.8516V10.9144V10.9772V11.0398V11.1022V11.1645V11.2267V11.2888V11.3507V11.4124V11.4741V11.5356V11.5969V11.6581V11.7192V11.7801V11.8409V11.9016V11.9621V12.0225V12.0828V12.1429V12.2029V12.2627V12.3224V12.382V12.4414V12.5007V12.5599V12.6189V12.6778V12.7365V12.7951V12.8536V12.9119V12.9701V13.0282V13.0861V13.1439V13.2015V13.2591V13.3164V13.3737V13.4308V13.4878V13.5446V13.6013V13.6579V13.7143V13.7706V13.8267V13.8828V13.9386V13.9944V14.05V14.1055V14.1608V14.216V14.2711V14.3261V14.3809V14.4355V14.4901V14.5445V14.5987V14.6529V14.7069V14.7607V14.8145V14.868V14.9215V14.9748V15.028V15.0811V15.134V15.1868V15.2394V15.292V15.3443V15.3966V15.4487V15.5007V15.5526V15.6043V15.6559V15.7073V15.7586V15.8098V15.8609V15.9118V15.9626V16.0132V16.0637V16.1141V16.1644V16.2145V16.2645V16.3143V16.364V16.4136V16.4631V16.5124V16.5616V16.6107V16.6596V16.7084V16.7571V16.8056V16.854V16.9022V16.9504V16.9984V17.0463V17.094V17.1416V17.1891V17.2364V17.2836V17.3307V17.3777V17.4245V17.4712V17.5177V17.5642V17.6104V17.6566V17.7026V17.7485V17.7943V17.84V17.8855V17.9308V17.9761V18.0212V18.0662V18.111V18.1558V18.2004V18.2448V18.2892V18.3334V18.3774V18.4214V18.4652V18.5089V18.5524V18.5959V18.6392V18.6823V18.7254V18.7683V18.8111V18.8537V18.8962V18.9386V18.9809V19.023V19.065V19.1069V19.1486V19.1903V19.2317V19.2731V19.3143V19.3554V19.3964V19.4372V19.478V19.5186V19.559V19.5993V19.6395V19.6796V19.7196V19.7594V19.7991V19.8386V19.8781V19.9174V19.9566V19.9956V20.0345V20.0733V20.112V20.1505V20.189V20.2272V20.2654V20.3034V20.3413V20.3791V20.4168V20.4543V20.4917V20.529V20.5661V20.6031V20.64V20.6768V20.7134V20.7499V20.7863V20.8226V20.8587V20.8947V20.9306V20.9664V21.002V21.0375V21.0729V21.1081V21.1432V21.1782V21.2131V21.2479V21.2825V21.317V21.3514V21.3856V21.4197V21.4537V21.4876V21.5213V21.555V21.5885V21.6218V21.6551V21.6882V21.7212V21.7541V21.7868V21.8194V21.8519V21.8843V21.9166V21.9487V21.9807V22.0126V22.0443V22.0759V22.1075V22.1388V22.1701V22.2012V22.2322V22.2631V22.2939V22.3245V22.355V22.3854V22.4157V22.4458V22.4759V22.5058V22.5355V22.5652V22.5947V22.6241V22.6534V22.6826V22.7116V22.7405V22.7693V22.798V22.8265V22.855V22.8833V22.9115V22.9395V22.9675V22.9953V23.023V23.0505V23.078V23.1053V23.1325V23.1596V23.1866V23.2134V23.2401V23.2667V23.2932V23.3195V23.3458V23.3719V23.3979V23.4237V23.4495V23.4751V23.5006V23.526V23.5513V23.5764V23.6014V23.6263V23.6511V23.6758V23.7003V23.7247V23.749V23.7732V23.7973V23.8212V23.845V23.8687V23.8923V23.9158V23.9391V23.9623V23.9854V24.0084V24.0313V24.054V24.0766V24.0991V24.1215V24.1438V24.1659V24.1879V24.2098V24.2316V24.2533V24.2748V24.2963V24.3176V24.3388V24.3598V24.3808V24.4016V24.4223V24.4429V24.4634V24.4838V24.504V24.5241V24.5441V24.564V24.5838V24.6035V24.623V24.6424V24.6617V24.6809V24.7V24.7189V24.7377V24.7564V24.775V24.7935V24.8119V24.8301V24.8482V24.8662V24.8841V24.9019V24.9196V24.9371V24.9545V24.9718V24.989V25.0061V25.023V25.0399V25.0566V25.0732V25.0897V25.1061V25.1223V25.1385V25.1545V25.1704V25.1862V25.2019V25.2174V25.2329V25.2482V25.2634V25.2785V25.2935V25.3084V25.3231V25.3378V25.3523V25.3667V25.381V25.3952V25.4092V25.4232V25.437V25.4507V25.4643V25.4778V25.4912V25.5Z" fill="#E25F5F"/>
<path d="M17.5781 30.1875H17.1875V30.5781H17.5781V30.1875ZM37.1094 30.1875V30.5781H37.5V30.1875H37.1094ZM19.5312 22.668L19.1406 22.668V22.668L19.5312 22.668ZM19.5312 10.8516H19.9219H19.5312ZM19.5312 25.4084L19.9219 25.4084V25.4084L19.5312 25.4084ZM19.5312 26.2812H19.1406V26.6718L19.5312 26.6718L19.5312 26.2812ZM20.3125 26.2812V26.6719L20.3125 25.8906L20.3125 26.2812ZM19.5312 26.2812V25.8906H19.1406V26.2812H19.5312ZM19.5312 27.0625H19.1406V27.4531H19.5312V27.0625ZM35.7422 27.0625V27.4531H36.1328V27.0625H35.7422ZM35.7422 26.2812H36.1328V25.8906H35.7422V26.2812ZM34.9609 26.2812L34.9609 25.8906L34.9609 26.6719V26.2812ZM35.7422 26.2812L35.7422 26.6718L36.1328 26.6718V26.2812H35.7422ZM33.2215 4.22611L32.9468 4.50386L32.9468 4.50386L33.2215 4.22611ZM27.6419 1.94045L27.6393 2.33106L27.6393 2.33106L27.6419 1.94045ZM22.0532 4.16994L22.3273 4.44832L22.3273 4.44831L22.0532 4.16994ZM21.0938 25.5H20.7031V25.8906H21.0938V25.5ZM34.1797 25.5V25.8906H34.5703V25.5H34.1797ZM23.1494 5.28342L22.8754 5.00505L22.8754 5.00505L23.1494 5.28342ZM27.6315 3.50291L27.6341 3.1123L27.6341 3.1123L27.6315 3.50291ZM32.1228 5.33712L32.3975 5.05937L32.3975 5.05937L32.1228 5.33712ZM17.9688 30.1875V10.2656H17.1875V30.1875H17.9688ZM37.1094 29.7969H17.5781V30.5781H37.1094V29.7969ZM36.7188 9.875V30.1875H37.5V9.875H36.7188ZM27.7344 0.890625C32.6963 0.890625 36.7188 4.91307 36.7188 9.875H37.5C37.5 4.48159 33.1278 0.109375 27.7344 0.109375V0.890625ZM27.3438 0.890625H27.7344V0.109375H27.3438V0.890625ZM17.9688 10.2656C17.9688 5.08796 22.1661 0.890625 27.3438 0.890625V0.109375C21.7346 0.109375 17.1875 4.65648 17.1875 10.2656H17.9688ZM19.9219 22.668L19.9219 10.8516L19.1406 10.8516L19.1406 22.668L19.9219 22.668ZM19.9219 25.4084L19.9219 22.668L19.1406 22.668L19.1406 25.4084L19.9219 25.4084ZM19.9219 26.0669V25.4084H19.1406V26.0669H19.9219ZM19.9219 26.2281V26.0669H19.1406V26.2281H19.9219ZM19.9219 26.268V26.2281H19.1406V26.268H19.9219ZM19.9219 26.278V26.268H19.1406V26.278H19.9219ZM19.9219 26.2804V26.278H19.1406V26.2804H19.9219ZM19.9219 26.281V26.2804H19.1406V26.281H19.9219ZM19.9219 26.2812V26.281H19.1406V26.2812H19.9219ZM20.3125 25.8906L19.5313 25.8906L19.5312 26.6718L20.3125 26.6719L20.3125 25.8906ZM19.5312 26.6719H20.3125V25.8906H19.5312V26.6719ZM19.9219 27.0625V26.2812H19.1406V27.0625H19.9219ZM20.3125 26.6719H19.5312V27.4531H20.3125V26.6719ZM34.9609 26.6719H20.3125V27.4531H34.9609V26.6719ZM35.7422 26.6719H34.9609V27.4531H35.7422V26.6719ZM35.3516 26.2812V27.0625H36.1328V26.2812H35.3516ZM34.9609 26.6719H35.7422V25.8906H34.9609V26.6719ZM35.7422 25.8906L34.9609 25.8906L34.961 26.6719L35.7422 26.6718L35.7422 25.8906ZM35.3516 26.281V26.2812H36.1328V26.281H35.3516ZM35.3516 26.2808V26.281H36.1328V26.2808H35.3516ZM35.3516 26.2804V26.2808H36.1328V26.2804H35.3516ZM35.3516 26.2799V26.2804H36.1328V26.2799H35.3516ZM35.3516 26.2793V26.2799H36.1328V26.2793H35.3516ZM35.3516 26.2786V26.2793H36.1328V26.2786H35.3516ZM35.3516 26.2778V26.2786H36.1328V26.2778H35.3516ZM35.3516 26.2769V26.2778H36.1328V26.2769H35.3516ZM35.3516 26.2759V26.2769H36.1328V26.2759H35.3516ZM35.3516 26.2747V26.2759H36.1328V26.2747H35.3516ZM35.3516 26.2735V26.2747H36.1328V26.2735H35.3516ZM35.3516 26.2722V26.2735H36.1328V26.2722H35.3516ZM35.3516 26.2707V26.2722H36.1328V26.2707H35.3516ZM35.3516 26.2691V26.2707H36.1328V26.2691H35.3516ZM35.3516 26.2675V26.2691H36.1328V26.2675H35.3516ZM35.3516 26.2657V26.2675H36.1328V26.2657H35.3516ZM35.3516 26.2638V26.2657H36.1328V26.2638H35.3516ZM35.3516 26.2618V26.2638H36.1328V26.2618H35.3516ZM35.3516 26.2597V26.2618H36.1328V26.2597H35.3516ZM35.3516 26.2575V26.2597H36.1328V26.2575H35.3516ZM35.3516 26.2552V26.2575H36.1328V26.2552H35.3516ZM35.3516 26.2527V26.2552H36.1328V26.2527H35.3516ZM35.3516 26.2502V26.2527H36.1328V26.2502H35.3516ZM35.3516 26.2476V26.2502H36.1328V26.2476H35.3516ZM35.3516 26.2448V26.2476H36.1328V26.2448H35.3516ZM35.3516 26.2419V26.2448H36.1328V26.2419H35.3516ZM35.3516 26.239V26.2419H36.1328V26.239H35.3516ZM35.3516 26.2359V26.239H36.1328V26.2359H35.3516ZM35.3516 26.2327V26.2359H36.1328V26.2327H35.3516ZM35.3516 26.2294V26.2327H36.1328V26.2294H35.3516ZM35.3516 26.226V26.2294H36.1328V26.226H35.3516ZM35.3516 26.2225V26.226H36.1328V26.2225H35.3516ZM35.3516 26.2188V26.2225H36.1328V26.2188H35.3516ZM35.3516 26.2151V26.2188H36.1328V26.2151H35.3516ZM35.3516 26.2113V26.2151H36.1328V26.2113H35.3516ZM35.3516 26.2073V26.2113H36.1328V26.2073H35.3516ZM35.3516 26.2032V26.2073H36.1328V26.2032H35.3516ZM35.3516 26.1991V26.2032H36.1328V26.1991H35.3516ZM35.3516 26.1948V26.1991H36.1328V26.1948H35.3516ZM35.3516 26.1904V26.1948H36.1328V26.1904H35.3516ZM35.3516 26.1859V26.1904H36.1328V26.1859H35.3516ZM35.3516 26.1813V26.1859H36.1328V26.1813H35.3516ZM35.3516 26.1765V26.1813H36.1328V26.1765H35.3516ZM35.3516 26.1717V26.1765H36.1328V26.1717H35.3516ZM35.3516 26.1667V26.1717H36.1328V26.1667H35.3516ZM35.3516 26.1617V26.1667H36.1328V26.1617H35.3516ZM35.3516 26.1565V26.1617H36.1328V26.1565H35.3516ZM35.3516 26.1513V26.1565H36.1328V26.1513H35.3516ZM35.3516 26.1459V26.1513H36.1328V26.1459H35.3516ZM35.3516 26.1404V26.1459H36.1328V26.1404H35.3516ZM35.3516 26.1348V26.1404H36.1328V26.1348H35.3516ZM35.3516 26.129V26.1348H36.1328V26.129H35.3516ZM35.3516 26.1232V26.129H36.1328V26.1232H35.3516ZM35.3516 26.1173V26.1232H36.1328V26.1173H35.3516ZM35.3516 26.1112V26.1173H36.1328V26.1112H35.3516ZM35.3516 26.1051V26.1112H36.1328V26.1051H35.3516ZM35.3516 26.0988V26.1051H36.1328V26.0988H35.3516ZM35.3516 26.0924V26.0988H36.1328V26.0924H35.3516ZM35.3516 26.0859V26.0924H36.1328V26.0859H35.3516ZM35.3516 26.0793V26.0859H36.1328V26.0793H35.3516ZM35.3516 26.0726V26.0793H36.1328V26.0726H35.3516ZM35.3516 26.0658V26.0726H36.1328V26.0658H35.3516ZM35.3516 26.0589V26.0658H36.1328V26.0589H35.3516ZM35.3516 26.0518V26.0589H36.1328V26.0518H35.3516ZM35.3516 26.0446V26.0518H36.1328V26.0446H35.3516ZM35.3516 26.0374V26.0446H36.1328V26.0374H35.3516ZM35.3516 26.03V26.0374H36.1328V26.03H35.3516ZM35.3516 26.0225V26.03H36.1328V26.0225H35.3516ZM35.3516 26.0149V26.0225H36.1328V26.0149H35.3516ZM35.3516 26.0072V26.0149H36.1328V26.0072H35.3516ZM35.3516 25.9994V26.0072H36.1328V25.9994H35.3516ZM35.3516 25.9914V25.9994H36.1328V25.9914H35.3516ZM35.3516 25.9834V25.9914H36.1328V25.9834H35.3516ZM35.3516 25.9752V25.9834H36.1328V25.9752H35.3516ZM35.3516 25.9669V25.9752H36.1328V25.9669H35.3516ZM35.3516 25.9585V25.9669H36.1328V25.9585H35.3516ZM35.3516 25.95V25.9585H36.1328V25.95H35.3516ZM35.3516 25.9414V25.95H36.1328V25.9414H35.3516ZM35.3516 25.9327V25.9414H36.1328V25.9327H35.3516ZM35.3516 25.9239V25.9327H36.1328V25.9239H35.3516ZM35.3516 25.9149V25.9239H36.1328V25.9149H35.3516ZM35.3516 25.9059V25.9149H36.1328V25.9059H35.3516ZM35.3516 25.8967V25.9059H36.1328V25.8967H35.3516ZM35.3516 25.8874V25.8967H36.1328V25.8874H35.3516ZM35.3516 25.878V25.8874H36.1328V25.878H35.3516ZM35.3516 25.8685V25.878H36.1328V25.8685H35.3516ZM35.3516 25.8589V25.8685H36.1328V25.8589H35.3516ZM35.3516 25.8492V25.8589H36.1328V25.8492H35.3516ZM35.3516 25.8393V25.8492H36.1328V25.8393H35.3516ZM35.3516 25.8293V25.8393H36.1328V25.8293H35.3516ZM35.3516 25.8193V25.8293H36.1328V25.8193H35.3516ZM35.3516 25.8091V25.8193H36.1328V25.8091H35.3516ZM35.3516 25.7988V25.8091H36.1328V25.7988H35.3516ZM35.3516 25.7884V25.7988H36.1328V25.7884H35.3516ZM35.3516 25.7779V25.7884H36.1328V25.7779H35.3516ZM35.3516 25.7672V25.7779H36.1328V25.7672H35.3516ZM35.3516 25.7565V25.7672H36.1328V25.7565H35.3516ZM35.3516 25.7456V25.7565H36.1328V25.7456H35.3516ZM35.3516 25.7346V25.7456H36.1328V25.7346H35.3516ZM35.3516 25.7235V25.7346H36.1328V25.7235H35.3516ZM35.3516 25.7123V25.7235H36.1328V25.7123H35.3516ZM35.3516 25.701V25.7123H36.1328V25.701H35.3516ZM35.3516 25.6896V25.701H36.1328V25.6896H35.3516ZM35.3516 25.678V25.6896H36.1328V25.678H35.3516ZM35.3516 25.6664V25.678H36.1328V25.6664H35.3516ZM35.3516 25.6546V25.6664H36.1328V25.6546H35.3516ZM35.3516 25.6427V25.6546H36.1328V25.6427H35.3516ZM35.3516 25.6307V25.6427H36.1328V25.6307H35.3516ZM35.3516 25.6186V25.6307H36.1328V25.6186H35.3516ZM35.3516 25.6064V25.6186H36.1328V25.6064H35.3516ZM35.3516 25.594V25.6064H36.1328V25.594H35.3516ZM35.3516 25.5816V25.594H36.1328V25.5816H35.3516ZM35.3516 25.569V25.5816H36.1328V25.569H35.3516ZM35.3516 25.5563V25.569H36.1328V25.5563H35.3516ZM35.3516 25.5435V25.5563H36.1328V25.5435H35.3516ZM35.3516 25.5306V25.5435H36.1328V25.5306H35.3516ZM35.3516 25.5176V25.5306H36.1328V25.5176H35.3516ZM35.3516 25.5044V25.5176H36.1328V25.5044H35.3516ZM35.3516 25.4912V25.5044H36.1328V25.4912H35.3516ZM35.3516 25.4778V25.4912H36.1328V25.4778H35.3516ZM35.3516 25.4643V25.4778H36.1328V25.4643H35.3516ZM35.3516 25.4507V25.4643H36.1328V25.4507H35.3516ZM35.3516 25.437V25.4507H36.1328V25.437H35.3516ZM35.3516 25.4232V25.437H36.1328V25.4232H35.3516ZM35.3516 25.4092V25.4232H36.1328V25.4092H35.3516ZM35.3516 25.3952V25.4092H36.1328V25.3952H35.3516ZM35.3516 25.381V25.3952H36.1328V25.381H35.3516ZM35.3516 25.3667V25.381H36.1328V25.3667H35.3516ZM35.3516 25.3523V25.3667H36.1328V25.3523H35.3516ZM35.3516 25.3378V25.3523H36.1328V25.3378H35.3516ZM35.3516 25.3231V25.3378H36.1328V25.3231H35.3516ZM35.3516 25.3084V25.3231H36.1328V25.3084H35.3516ZM35.3516 25.2935V25.3084H36.1328V25.2935H35.3516ZM35.3516 25.2785V25.2935H36.1328V25.2785H35.3516ZM35.3516 25.2634V25.2785H36.1328V25.2634H35.3516ZM35.3516 25.2482V25.2634H36.1328V25.2482H35.3516ZM35.3516 25.2329V25.2482H36.1328V25.2329H35.3516ZM35.3516 25.2174V25.2329H36.1328V25.2174H35.3516ZM35.3516 25.2019V25.2174H36.1328V25.2019H35.3516ZM35.3516 25.1862V25.2019H36.1328V25.1862H35.3516ZM35.3516 25.1704V25.1862H36.1328V25.1704H35.3516ZM35.3516 25.1545V25.1704H36.1328V25.1545H35.3516ZM35.3516 25.1385V25.1545H36.1328V25.1385H35.3516ZM35.3516 25.1223V25.1385H36.1328V25.1223H35.3516ZM35.3516 25.1061V25.1223H36.1328V25.1061H35.3516ZM35.3516 25.0897V25.1061H36.1328V25.0897H35.3516ZM35.3516 25.0732V25.0897H36.1328V25.0732H35.3516ZM35.3516 25.0566V25.0732H36.1328V25.0566H35.3516ZM35.3516 25.0399V25.0566H36.1328V25.0399H35.3516ZM35.3516 25.023V25.0399H36.1328V25.023H35.3516ZM35.3516 25.0061V25.023H36.1328V25.0061H35.3516ZM35.3516 24.989V25.0061H36.1328V24.989H35.3516ZM35.3516 24.9718V24.989H36.1328V24.9718H35.3516ZM35.3516 24.9545V24.9718H36.1328V24.9545H35.3516ZM35.3516 24.9371V24.9545H36.1328V24.9371H35.3516ZM35.3516 24.9196V24.9371H36.1328V24.9196H35.3516ZM35.3516 24.9019V24.9196H36.1328V24.9019H35.3516ZM35.3516 24.8841V24.9019H36.1328V24.8841H35.3516ZM35.3516 24.8662V24.8841H36.1328V24.8662H35.3516ZM35.3516 24.8482V24.8662H36.1328V24.8482H35.3516ZM35.3516 24.8301V24.8482H36.1328V24.8301H35.3516ZM35.3516 24.8119V24.8301H36.1328V24.8119H35.3516ZM35.3516 24.7935V24.8119H36.1328V24.7935H35.3516ZM35.3516 24.775V24.7935H36.1328V24.775H35.3516ZM35.3516 24.7564V24.775H36.1328V24.7564H35.3516ZM35.3516 24.7377V24.7564H36.1328V24.7377H35.3516ZM35.3516 24.7189V24.7377H36.1328V24.7189H35.3516ZM35.3516 24.7V24.7189H36.1328V24.7H35.3516ZM35.3516 24.6809V24.7H36.1328V24.6809H35.3516ZM35.3516 24.6617V24.6809H36.1328V24.6617H35.3516ZM35.3516 24.6424V24.6617H36.1328V24.6424H35.3516ZM35.3516 24.623V24.6424H36.1328V24.623H35.3516ZM35.3516 24.6035V24.623H36.1328V24.6035H35.3516ZM35.3516 24.5838V24.6035H36.1328V24.5838H35.3516ZM35.3516 24.564V24.5838H36.1328V24.564H35.3516ZM35.3516 24.5441V24.564H36.1328V24.5441H35.3516ZM35.3516 24.5241V24.5441H36.1328V24.5241H35.3516ZM35.3516 24.504V24.5241H36.1328V24.504H35.3516ZM35.3516 24.4838V24.504H36.1328V24.4838H35.3516ZM35.3516 24.4634V24.4838H36.1328V24.4634H35.3516ZM35.3516 24.4429V24.4634H36.1328V24.4429H35.3516ZM35.3516 24.4223V24.4429H36.1328V24.4223H35.3516ZM35.3516 24.4016V24.4223H36.1328V24.4016H35.3516ZM35.3516 24.3808V24.4016H36.1328V24.3808H35.3516ZM35.3516 24.3598V24.3808H36.1328V24.3598H35.3516ZM35.3516 24.3388V24.3598H36.1328V24.3388H35.3516ZM35.3516 24.3176V24.3388H36.1328V24.3176H35.3516ZM35.3516 24.2963V24.3176H36.1328V24.2963H35.3516ZM35.3516 24.2748V24.2963H36.1328V24.2748H35.3516ZM35.3516 24.2533V24.2748H36.1328V24.2533H35.3516ZM35.3516 24.2316V24.2533H36.1328V24.2316H35.3516ZM35.3516 24.2098V24.2316H36.1328V24.2098H35.3516ZM35.3516 24.1879V24.2098H36.1328V24.1879H35.3516ZM35.3516 24.1659V24.1879H36.1328V24.1659H35.3516ZM35.3516 24.1438V24.1659H36.1328V24.1438H35.3516ZM35.3516 24.1215V24.1438H36.1328V24.1215H35.3516ZM35.3516 24.0991V24.1215H36.1328V24.0991H35.3516ZM35.3516 24.0766V24.0991H36.1328V24.0766H35.3516ZM35.3516 24.054V24.0766H36.1328V24.054H35.3516ZM35.3516 24.0313V24.054H36.1328V24.0313H35.3516ZM35.3516 24.0084V24.0313H36.1328V24.0084H35.3516ZM35.3516 23.9854V24.0084H36.1328V23.9854H35.3516ZM35.3516 23.9623V23.9854H36.1328V23.9623H35.3516ZM35.3516 23.9391V23.9623H36.1328V23.9391H35.3516ZM35.3516 23.9158V23.9391H36.1328V23.9158H35.3516ZM35.3516 23.8923V23.9158H36.1328V23.8923H35.3516ZM35.3516 23.8687V23.8923H36.1328V23.8687H35.3516ZM35.3516 23.845V23.8687H36.1328V23.845H35.3516ZM35.3516 23.8212V23.845H36.1328V23.8212H35.3516ZM35.3516 23.7973V23.8212H36.1328V23.7973H35.3516ZM35.3516 23.7732V23.7973H36.1328V23.7732H35.3516ZM35.3516 23.749V23.7732H36.1328V23.749H35.3516ZM35.3516 23.7247V23.749H36.1328V23.7247H35.3516ZM35.3516 23.7003V23.7247H36.1328V23.7003H35.3516ZM35.3516 23.6758V23.7003H36.1328V23.6758H35.3516ZM35.3516 23.6511V23.6758H36.1328V23.6511H35.3516ZM35.3516 23.6263V23.6511H36.1328V23.6263H35.3516ZM35.3516 23.6014V23.6263H36.1328V23.6014H35.3516ZM35.3516 23.5764V23.6014H36.1328V23.5764H35.3516ZM35.3516 23.5513V23.5764H36.1328V23.5513H35.3516ZM35.3516 23.526V23.5513H36.1328V23.526H35.3516ZM35.3516 23.5006V23.526H36.1328V23.5006H35.3516ZM35.3516 23.4751V23.5006H36.1328V23.4751H35.3516ZM35.3516 23.4495V23.4751H36.1328V23.4495H35.3516ZM35.3516 23.4237V23.4495H36.1328V23.4237H35.3516ZM35.3516 23.3979V23.4237H36.1328V23.3979H35.3516ZM35.3516 23.3719V23.3979H36.1328V23.3719H35.3516ZM35.3516 23.3458V23.3719H36.1328V23.3458H35.3516ZM35.3516 23.3195V23.3458H36.1328V23.3195H35.3516ZM35.3516 23.2932V23.3195H36.1328V23.2932H35.3516ZM35.3516 23.2667V23.2932H36.1328V23.2667H35.3516ZM35.3516 23.2401V23.2667H36.1328V23.2401H35.3516ZM35.3516 23.2134V23.2401H36.1328V23.2134H35.3516ZM35.3516 23.1866V23.2134H36.1328V23.1866H35.3516ZM35.3516 23.1596V23.1866H36.1328V23.1596H35.3516ZM35.3516 23.1325V23.1596H36.1328V23.1325H35.3516ZM35.3516 23.1053V23.1325H36.1328V23.1053H35.3516ZM35.3516 23.078V23.1053H36.1328V23.078H35.3516ZM35.3516 23.0505V23.078H36.1328V23.0505H35.3516ZM35.3516 23.023V23.0505H36.1328V23.023H35.3516ZM35.3516 22.9953V23.023H36.1328V22.9953H35.3516ZM35.3516 22.9675V22.9953H36.1328V22.9675H35.3516ZM35.3516 22.9395V22.9675H36.1328V22.9395H35.3516ZM35.3516 22.9115V22.9395H36.1328V22.9115H35.3516ZM35.3516 22.8833V22.9115H36.1328V22.8833H35.3516ZM35.3516 22.855V22.8833H36.1328V22.855H35.3516ZM35.3516 22.8265V22.855H36.1328V22.8265H35.3516ZM35.3516 22.798V22.8265H36.1328V22.798H35.3516ZM35.3516 22.7693V22.798H36.1328V22.7693H35.3516ZM35.3516 22.7405V22.7693H36.1328V22.7405H35.3516ZM35.3516 22.7116V22.7405H36.1328V22.7116H35.3516ZM35.3516 22.6826V22.7116H36.1328V22.6826H35.3516ZM35.3516 22.6534V22.6826H36.1328V22.6534H35.3516ZM35.3516 22.6241V22.6534H36.1328V22.6241H35.3516ZM35.3516 22.5947V22.6241H36.1328V22.5947H35.3516ZM35.3516 22.5652V22.5947H36.1328V22.5652H35.3516ZM35.3516 22.5355V22.5652H36.1328V22.5355H35.3516ZM35.3516 22.5058V22.5355H36.1328V22.5058H35.3516ZM35.3516 22.4759V22.5058H36.1328V22.4759H35.3516ZM35.3516 22.4458V22.4759H36.1328V22.4458H35.3516ZM35.3516 22.4157V22.4458H36.1328V22.4157H35.3516ZM35.3516 22.3854V22.4157H36.1328V22.3854H35.3516ZM35.3516 22.355V22.3854H36.1328V22.355H35.3516ZM35.3516 22.3245V22.355H36.1328V22.3245H35.3516ZM35.3516 22.2939V22.3245H36.1328V22.2939H35.3516ZM35.3516 22.2631V22.2939H36.1328V22.2631H35.3516ZM35.3516 22.2322V22.2631H36.1328V22.2322H35.3516ZM35.3516 22.2012V22.2322H36.1328V22.2012H35.3516ZM35.3516 22.1701V22.2012H36.1328V22.1701H35.3516ZM35.3516 22.1388V22.1701H36.1328V22.1388H35.3516ZM35.3516 22.1075V22.1388H36.1328V22.1075H35.3516ZM35.3516 22.0759V22.1075H36.1328V22.0759H35.3516ZM35.3516 22.0443V22.0759H36.1328V22.0443H35.3516ZM35.3516 22.0126V22.0443H36.1328V22.0126H35.3516ZM35.3516 21.9807V22.0126H36.1328V21.9807H35.3516ZM35.3516 21.9487V21.9807H36.1328V21.9487H35.3516ZM35.3516 21.9166V21.9487H36.1328V21.9166H35.3516ZM35.3516 21.8843V21.9166H36.1328V21.8843H35.3516ZM35.3516 21.8519V21.8843H36.1328V21.8519H35.3516ZM35.3516 21.8194V21.8519H36.1328V21.8194H35.3516ZM35.3516 21.7868V21.8194H36.1328V21.7868H35.3516ZM35.3516 21.7541V21.7868H36.1328V21.7541H35.3516ZM35.3516 21.7212V21.7541H36.1328V21.7212H35.3516ZM35.3516 21.6882V21.7212H36.1328V21.6882H35.3516ZM35.3516 21.6551V21.6882H36.1328V21.6551H35.3516ZM35.3516 21.6218V21.6551H36.1328V21.6218H35.3516ZM35.3516 21.5885V21.6218H36.1328V21.5885H35.3516ZM35.3516 21.555V21.5885H36.1328V21.555H35.3516ZM35.3516 21.5213V21.555H36.1328V21.5213H35.3516ZM35.3516 21.4876V21.5213H36.1328V21.4876H35.3516ZM35.3516 21.4537V21.4876H36.1328V21.4537H35.3516ZM35.3516 21.4197V21.4537H36.1328V21.4197H35.3516ZM35.3516 21.3856V21.4197H36.1328V21.3856H35.3516ZM35.3516 21.3514V21.3856H36.1328V21.3514H35.3516ZM35.3516 21.317V21.3514H36.1328V21.317H35.3516ZM35.3516 21.2825V21.317H36.1328V21.2825H35.3516ZM35.3516 21.2479V21.2825H36.1328V21.2479H35.3516ZM35.3516 21.2131V21.2479H36.1328V21.2131H35.3516ZM35.3516 21.1782V21.2131H36.1328V21.1782H35.3516ZM35.3516 21.1432V21.1782H36.1328V21.1432H35.3516ZM35.3516 21.1081V21.1432H36.1328V21.1081H35.3516ZM35.3516 21.0729V21.1081H36.1328V21.0729H35.3516ZM35.3516 21.0375V21.0729H36.1328V21.0375H35.3516ZM35.3516 21.002V21.0375H36.1328V21.002H35.3516ZM35.3516 20.9664V21.002H36.1328V20.9664H35.3516ZM35.3516 20.9306V20.9664H36.1328V20.9306H35.3516ZM35.3516 20.8947V20.9306H36.1328V20.8947H35.3516ZM35.3516 20.8587V20.8947H36.1328V20.8587H35.3516ZM35.3516 20.8226V20.8587H36.1328V20.8226H35.3516ZM35.3516 20.7863V20.8226H36.1328V20.7863H35.3516ZM35.3516 20.7499V20.7863H36.1328V20.7499H35.3516ZM35.3516 20.7134V20.7499H36.1328V20.7134H35.3516ZM35.3516 20.6768V20.7134H36.1328V20.6768H35.3516ZM35.3516 20.64V20.6768H36.1328V20.64H35.3516ZM35.3516 20.6031V20.64H36.1328V20.6031H35.3516ZM35.3516 20.5661V20.6031H36.1328V20.5661H35.3516ZM35.3516 20.529V20.5661H36.1328V20.529H35.3516ZM35.3516 20.4917V20.529H36.1328V20.4917H35.3516ZM35.3516 20.4543V20.4917H36.1328V20.4543H35.3516ZM35.3516 20.4168V20.4543H36.1328V20.4168H35.3516ZM35.3516 20.3791V20.4168H36.1328V20.3791H35.3516ZM35.3516 20.3413V20.3791H36.1328V20.3413H35.3516ZM35.3516 20.3034V20.3413H36.1328V20.3034H35.3516ZM35.3516 20.2654V20.3034H36.1328V20.2654H35.3516ZM35.3516 20.2272V20.2654H36.1328V20.2272H35.3516ZM35.3516 20.189V20.2272H36.1328V20.189H35.3516ZM35.3516 20.1505V20.189H36.1328V20.1505H35.3516ZM35.3516 20.112V20.1505H36.1328V20.112H35.3516ZM35.3516 20.0733V20.112H36.1328V20.0733H35.3516ZM35.3516 20.0345V20.0733H36.1328V20.0345H35.3516ZM35.3516 19.9956V20.0345H36.1328V19.9956H35.3516ZM35.3516 19.9566V19.9956H36.1328V19.9566H35.3516ZM35.3516 19.9174V19.9566H36.1328V19.9174H35.3516ZM35.3516 19.8781V19.9174H36.1328V19.8781H35.3516ZM35.3516 19.8386V19.8781H36.1328V19.8386H35.3516ZM35.3516 19.7991V19.8386H36.1328V19.7991H35.3516ZM35.3516 19.7594V19.7991H36.1328V19.7594H35.3516ZM35.3516 19.7196V19.7594H36.1328V19.7196H35.3516ZM35.3516 19.6796V19.7196H36.1328V19.6796H35.3516ZM35.3516 19.6395V19.6796H36.1328V19.6395H35.3516ZM35.3516 19.5993V19.6395H36.1328V19.5993H35.3516ZM35.3516 19.559V19.5993H36.1328V19.559H35.3516ZM35.3516 19.5186V19.559H36.1328V19.5186H35.3516ZM35.3516 19.478V19.5186H36.1328V19.478H35.3516ZM35.3516 19.4372V19.478H36.1328V19.4372H35.3516ZM35.3516 19.3964V19.4372H36.1328V19.3964H35.3516ZM35.3516 19.3554V19.3964H36.1328V19.3554H35.3516ZM35.3516 19.3143V19.3554H36.1328V19.3143H35.3516ZM35.3516 19.2731V19.3143H36.1328V19.2731H35.3516ZM35.3516 19.2317V19.2731H36.1328V19.2317H35.3516ZM35.3516 19.1903V19.2317H36.1328V19.1903H35.3516ZM35.3516 19.1486V19.1903H36.1328V19.1486H35.3516ZM35.3516 19.1069V19.1486H36.1328V19.1069H35.3516ZM35.3516 19.065V19.1069H36.1328V19.065H35.3516ZM35.3516 19.023V19.065H36.1328V19.023H35.3516ZM35.3516 18.9809V19.023H36.1328V18.9809H35.3516ZM35.3516 18.9386V18.9809H36.1328V18.9386H35.3516ZM35.3516 18.8962V18.9386H36.1328V18.8962H35.3516ZM35.3516 18.8537V18.8962H36.1328V18.8537H35.3516ZM35.3516 18.8111V18.8537H36.1328V18.8111H35.3516ZM35.3516 18.7683V18.8111H36.1328V18.7683H35.3516ZM35.3516 18.7254V18.7683H36.1328V18.7254H35.3516ZM35.3516 18.6823V18.7254H36.1328V18.6823H35.3516ZM35.3516 18.6392V18.6823H36.1328V18.6392H35.3516ZM35.3516 18.5959V18.6392H36.1328V18.5959H35.3516ZM35.3516 18.5524V18.5959H36.1328V18.5524H35.3516ZM35.3516 18.5089V18.5524H36.1328V18.5089H35.3516ZM35.3516 18.4652V18.5089H36.1328V18.4652H35.3516ZM35.3516 18.4214V18.4652H36.1328V18.4214H35.3516ZM35.3516 18.3774V18.4214H36.1328V18.3774H35.3516ZM35.3516 18.3334V18.3774H36.1328V18.3334H35.3516ZM35.3516 18.2892V18.3334H36.1328V18.2892H35.3516ZM35.3516 18.2448V18.2892H36.1328V18.2448H35.3516ZM35.3516 18.2004V18.2448H36.1328V18.2004H35.3516ZM35.3516 18.1558V18.2004H36.1328V18.1558H35.3516ZM35.3516 18.111V18.1558H36.1328V18.111H35.3516ZM35.3516 18.0662V18.111H36.1328V18.0662H35.3516ZM35.3516 18.0212V18.0662H36.1328V18.0212H35.3516ZM35.3516 17.9761V18.0212H36.1328V17.9761H35.3516ZM35.3516 17.9308V17.9761H36.1328V17.9308H35.3516ZM35.3516 17.8855V17.9308H36.1328V17.8855H35.3516ZM35.3516 17.84V17.8855H36.1328V17.84H35.3516ZM35.3516 17.7943V17.84H36.1328V17.7943H35.3516ZM35.3516 17.7485V17.7943H36.1328V17.7485H35.3516ZM35.3516 17.7026V17.7485H36.1328V17.7026H35.3516ZM35.3516 17.6566V17.7026H36.1328V17.6566H35.3516ZM35.3516 17.6104V17.6566H36.1328V17.6104H35.3516ZM35.3516 17.5642V17.6104H36.1328V17.5642H35.3516ZM35.3516 17.5177V17.5642H36.1328V17.5177H35.3516ZM35.3516 17.4712V17.5177H36.1328V17.4712H35.3516ZM35.3516 17.4245V17.4712H36.1328V17.4245H35.3516ZM35.3516 17.3777V17.4245H36.1328V17.3777H35.3516ZM35.3516 17.3307V17.3777H36.1328V17.3307H35.3516ZM35.3516 17.2836V17.3307H36.1328V17.2836H35.3516ZM35.3516 17.2364V17.2836H36.1328V17.2364H35.3516ZM35.3516 17.1891V17.2364H36.1328V17.1891H35.3516ZM35.3516 17.1416V17.1891H36.1328V17.1416H35.3516ZM35.3516 17.094V17.1416H36.1328V17.094H35.3516ZM35.3516 17.0463V17.094H36.1328V17.0463H35.3516ZM35.3516 16.9984V17.0463H36.1328V16.9984H35.3516ZM35.3516 16.9504V16.9984H36.1328V16.9504H35.3516ZM35.3516 16.9022V16.9504H36.1328V16.9022H35.3516ZM35.3516 16.854V16.9022H36.1328V16.854H35.3516ZM35.3516 16.8056V16.854H36.1328V16.8056H35.3516ZM35.3516 16.7571V16.8056H36.1328V16.7571H35.3516ZM35.3516 16.7084V16.7571H36.1328V16.7084H35.3516ZM35.3516 16.6596V16.7084H36.1328V16.6596H35.3516ZM35.3516 16.6107V16.6596H36.1328V16.6107H35.3516ZM35.3516 16.5616V16.6107H36.1328V16.5616H35.3516ZM35.3516 16.5124V16.5616H36.1328V16.5124H35.3516ZM35.3516 16.4631V16.5124H36.1328V16.4631H35.3516ZM35.3516 16.4136V16.4631H36.1328V16.4136H35.3516ZM35.3516 16.364V16.4136H36.1328V16.364H35.3516ZM35.3516 16.3143V16.364H36.1328V16.3143H35.3516ZM35.3516 16.2645V16.3143H36.1328V16.2645H35.3516ZM35.3516 16.2145V16.2645H36.1328V16.2145H35.3516ZM35.3516 16.1644V16.2145H36.1328V16.1644H35.3516ZM35.3516 16.1141V16.1644H36.1328V16.1141H35.3516ZM35.3516 16.0637V16.1141H36.1328V16.0637H35.3516ZM35.3516 16.0132V16.0637H36.1328V16.0132H35.3516ZM35.3516 15.9626V16.0132H36.1328V15.9626H35.3516ZM35.3516 15.9118V15.9626H36.1328V15.9118H35.3516ZM35.3516 15.8609V15.9118H36.1328V15.8609H35.3516ZM35.3516 15.8098V15.8609H36.1328V15.8098H35.3516ZM35.3516 15.7586V15.8098H36.1328V15.7586H35.3516ZM35.3516 15.7073V15.7586H36.1328V15.7073H35.3516ZM35.3516 15.6559V15.7073H36.1328V15.6559H35.3516ZM35.3516 15.6043V15.6559H36.1328V15.6043H35.3516ZM35.3516 15.5526V15.6043H36.1328V15.5526H35.3516ZM35.3516 15.5007V15.5526H36.1328V15.5007H35.3516ZM35.3516 15.4487V15.5007H36.1328V15.4487H35.3516ZM35.3516 15.3966V15.4487H36.1328V15.3966H35.3516ZM35.3516 15.3443V15.3966H36.1328V15.3443H35.3516ZM35.3516 15.292V15.3443H36.1328V15.292H35.3516ZM35.3516 15.2394V15.292H36.1328V15.2394H35.3516ZM35.3516 15.1868V15.2394H36.1328V15.1868H35.3516ZM35.3516 15.134V15.1868H36.1328V15.134H35.3516ZM35.3516 15.0811V15.134H36.1328V15.0811H35.3516ZM35.3516 15.028V15.0811H36.1328V15.028H35.3516ZM35.3516 14.9748V15.028H36.1328V14.9748H35.3516ZM35.3516 14.9215V14.9748H36.1328V14.9215H35.3516ZM35.3516 14.868V14.9215H36.1328V14.868H35.3516ZM35.3516 14.8145V14.868H36.1328V14.8145H35.3516ZM35.3516 14.7607V14.8145H36.1328V14.7607H35.3516ZM35.3516 14.7069V14.7607H36.1328V14.7069H35.3516ZM35.3516 14.6529V14.7069H36.1328V14.6529H35.3516ZM35.3516 14.5987V14.6529H36.1328V14.5987H35.3516ZM35.3516 14.5445V14.5987H36.1328V14.5445H35.3516ZM35.3516 14.4901V14.5445H36.1328V14.4901H35.3516ZM35.3516 14.4355V14.4901H36.1328V14.4355H35.3516ZM35.3516 14.3809V14.4355H36.1328V14.3809H35.3516ZM35.3516 14.3261V14.3809H36.1328V14.3261H35.3516ZM35.3516 14.2711V14.3261H36.1328V14.2711H35.3516ZM35.3516 14.216V14.2711H36.1328V14.216H35.3516ZM35.3516 14.1608V14.216H36.1328V14.1608H35.3516ZM35.3516 14.1055V14.1608H36.1328V14.1055H35.3516ZM35.3516 14.05V14.1055H36.1328V14.05H35.3516ZM35.3516 13.9944V14.05H36.1328V13.9944H35.3516ZM35.3516 13.9386V13.9944H36.1328V13.9386H35.3516ZM35.3516 13.8828V13.9386H36.1328V13.8828H35.3516ZM35.3516 13.8267V13.8828H36.1328V13.8267H35.3516ZM35.3516 13.7706V13.8267H36.1328V13.7706H35.3516ZM35.3516 13.7143V13.7706H36.1328V13.7143H35.3516ZM35.3516 13.6579V13.7143H36.1328V13.6579H35.3516ZM35.3516 13.6013V13.6579H36.1328V13.6013H35.3516ZM35.3516 13.5446V13.6013H36.1328V13.5446H35.3516ZM35.3516 13.4878V13.5446H36.1328V13.4878H35.3516ZM35.3516 13.4308V13.4878H36.1328V13.4308H35.3516ZM35.3516 13.3737V13.4308H36.1328V13.3737H35.3516ZM35.3516 13.3164V13.3737H36.1328V13.3164H35.3516ZM35.3516 13.2591V13.3164H36.1328V13.2591H35.3516ZM35.3516 13.2015V13.2591H36.1328V13.2015H35.3516ZM35.3516 13.1439V13.2015H36.1328V13.1439H35.3516ZM35.3516 13.0861V13.1439H36.1328V13.0861H35.3516ZM35.3516 13.0282V13.0861H36.1328V13.0282H35.3516ZM35.3516 12.9701V13.0282H36.1328V12.9701H35.3516ZM35.3516 12.9119V12.9701H36.1328V12.9119H35.3516ZM35.3516 12.8536V12.9119H36.1328V12.8536H35.3516ZM35.3516 12.7951V12.8536H36.1328V12.7951H35.3516ZM35.3516 12.7365V12.7951H36.1328V12.7365H35.3516ZM35.3516 12.6778V12.7365H36.1328V12.6778H35.3516ZM35.3516 12.6189V12.6778H36.1328V12.6189H35.3516ZM35.3516 12.5599V12.6189H36.1328V12.5599H35.3516ZM35.3516 12.5007V12.5599H36.1328V12.5007H35.3516ZM35.3516 12.4414V12.5007H36.1328V12.4414H35.3516ZM35.3516 12.382V12.4414H36.1328V12.382H35.3516ZM35.3516 12.3224V12.382H36.1328V12.3224H35.3516ZM35.3516 12.2627V12.3224H36.1328V12.2627H35.3516ZM35.3516 12.2029V12.2627H36.1328V12.2029H35.3516ZM35.3516 12.1429V12.2029H36.1328V12.1429H35.3516ZM35.3516 12.0828V12.1429H36.1328V12.0828H35.3516ZM35.3516 12.0225V12.0828H36.1328V12.0225H35.3516ZM35.3516 11.9621V12.0225H36.1328V11.9621H35.3516ZM35.3516 11.9016V11.9621H36.1328V11.9016H35.3516ZM35.3516 11.8409V11.9016H36.1328V11.8409H35.3516ZM35.3516 11.7801V11.8409H36.1328V11.7801H35.3516ZM35.3516 11.7192V11.7801H36.1328V11.7192H35.3516ZM35.3516 11.6581V11.7192H36.1328V11.6581H35.3516ZM35.3516 11.5969V11.6581H36.1328V11.5969H35.3516ZM35.3516 11.5356V11.5969H36.1328V11.5356H35.3516ZM35.3516 11.4741V11.5356H36.1328V11.4741H35.3516ZM35.3516 11.4124V11.4741H36.1328V11.4124H35.3516ZM35.3516 11.3507V11.4124H36.1328V11.3507H35.3516ZM35.3516 11.2888V11.3507H36.1328V11.2888H35.3516ZM35.3516 11.2267V11.2888H36.1328V11.2267H35.3516ZM35.3516 11.1645V11.2267H36.1328V11.1645H35.3516ZM35.3516 11.1022V11.1645H36.1328V11.1022H35.3516ZM35.3516 11.0398V11.1022H36.1328V11.0398H35.3516ZM35.3516 10.9772V11.0398H36.1328V10.9772H35.3516ZM35.3516 10.9144V10.9772H36.1328V10.9144H35.3516ZM35.3516 10.8516V10.9144H36.1328V10.8516H35.3516ZM32.9468 4.50386C34.4016 5.94246 35.3516 8.07235 35.3516 10.8516H36.1328C36.1328 7.88525 35.114 5.54825 33.4961 3.94836L32.9468 4.50386ZM27.6393 2.33106C29.5653 2.3439 31.4962 3.06937 32.9468 4.50386L33.4961 3.94836C31.8908 2.36083 29.7602 1.56393 27.6445 1.54983L27.6393 2.33106ZM22.3273 4.44831C23.78 3.0182 25.7131 2.31822 27.6393 2.33106L27.6445 1.54983C25.5283 1.53572 23.3909 2.30495 21.7792 3.89157L22.3273 4.44831ZM19.9219 10.8516C19.9219 8.02554 20.8706 5.88232 22.3273 4.44832L21.7792 3.89157C20.1556 5.48992 19.1406 7.84254 19.1406 10.8516H19.9219ZM21.0938 25.8906H34.1797V25.1094H21.0938V25.8906ZM20.7031 25.4084V25.5H21.4844V25.4084H20.7031ZM20.7031 22.668V25.4084H21.4844V22.668H20.7031ZM20.7031 10.8516V22.668H21.4844V10.8516H20.7031ZM22.8754 5.00505C21.5855 6.27481 20.7031 8.20868 20.7031 10.8516H21.4844C21.4844 8.39199 22.3004 6.6674 23.4234 5.56179L22.8754 5.00505ZM27.6341 3.1123C25.8981 3.10072 24.1692 3.73139 22.8754 5.00505L23.4234 5.56179C24.5584 4.44449 26.0832 3.88322 27.6289 3.89353L27.6341 3.1123ZM32.3975 5.05937C31.1015 3.77786 29.3703 3.12387 27.6341 3.1123L27.6289 3.89353C29.1752 3.90384 30.7068 4.48627 31.8481 5.61487L32.3975 5.05937ZM34.5703 10.8516C34.5703 8.25955 33.6892 6.33675 32.3975 5.05937L31.8481 5.61487C32.9769 6.73113 33.7891 8.44691 33.7891 10.8516H34.5703ZM34.5703 10.9144V10.8516H33.7891V10.9144H34.5703ZM34.5703 10.9772V10.9144H33.7891V10.9772H34.5703ZM34.5703 11.0398V10.9772H33.7891V11.0398H34.5703ZM34.5703 11.1022V11.0398H33.7891V11.1022H34.5703ZM34.5703 11.1645V11.1022H33.7891V11.1645H34.5703ZM34.5703 11.2267V11.1645H33.7891V11.2267H34.5703ZM34.5703 11.2888V11.2267H33.7891V11.2888H34.5703ZM34.5703 11.3507V11.2888H33.7891V11.3507H34.5703ZM34.5703 11.4124V11.3507H33.7891V11.4124H34.5703ZM34.5703 11.4741V11.4124H33.7891V11.4741H34.5703ZM34.5703 11.5356V11.4741H33.7891V11.5356H34.5703ZM34.5703 11.5969V11.5356H33.7891V11.5969H34.5703ZM34.5703 11.6581V11.5969H33.7891V11.6581H34.5703ZM34.5703 11.7192V11.6581H33.7891V11.7192H34.5703ZM34.5703 11.7801V11.7192H33.7891V11.7801H34.5703ZM34.5703 11.8409V11.7801H33.7891V11.8409H34.5703ZM34.5703 11.9016V11.8409H33.7891V11.9016H34.5703ZM34.5703 11.9621V11.9016H33.7891V11.9621H34.5703ZM34.5703 12.0225V11.9621H33.7891V12.0225H34.5703ZM34.5703 12.0828V12.0225H33.7891V12.0828H34.5703ZM34.5703 12.1429V12.0828H33.7891V12.1429H34.5703ZM34.5703 12.2029V12.1429H33.7891V12.2029H34.5703ZM34.5703 12.2627V12.2029H33.7891V12.2627H34.5703ZM34.5703 12.3224V12.2627H33.7891V12.3224H34.5703ZM34.5703 12.382V12.3224H33.7891V12.382H34.5703ZM34.5703 12.4414V12.382H33.7891V12.4414H34.5703ZM34.5703 12.5007V12.4414H33.7891V12.5007H34.5703ZM34.5703 12.5599V12.5007H33.7891V12.5599H34.5703ZM34.5703 12.6189V12.5599H33.7891V12.6189H34.5703ZM34.5703 12.6778V12.6189H33.7891V12.6778H34.5703ZM34.5703 12.7365V12.6778H33.7891V12.7365H34.5703ZM34.5703 12.7951V12.7365H33.7891V12.7951H34.5703ZM34.5703 12.8536V12.7951H33.7891V12.8536H34.5703ZM34.5703 12.9119V12.8536H33.7891V12.9119H34.5703ZM34.5703 12.9701V12.9119H33.7891V12.9701H34.5703ZM34.5703 13.0282V12.9701H33.7891V13.0282H34.5703ZM34.5703 13.0861V13.0282H33.7891V13.0861H34.5703ZM34.5703 13.1439V13.0861H33.7891V13.1439H34.5703ZM34.5703 13.2015V13.1439H33.7891V13.2015H34.5703ZM34.5703 13.2591V13.2015H33.7891V13.2591H34.5703ZM34.5703 13.3164V13.2591H33.7891V13.3164H34.5703ZM34.5703 13.3737V13.3164H33.7891V13.3737H34.5703ZM34.5703 13.4308V13.3737H33.7891V13.4308H34.5703ZM34.5703 13.4878V13.4308H33.7891V13.4878H34.5703ZM34.5703 13.5446V13.4878H33.7891V13.5446H34.5703ZM34.5703 13.6013V13.5446H33.7891V13.6013H34.5703ZM34.5703 13.6579V13.6013H33.7891V13.6579H34.5703ZM34.5703 13.7143V13.6579H33.7891V13.7143H34.5703ZM34.5703 13.7706V13.7143H33.7891V13.7706H34.5703ZM34.5703 13.8267V13.7706H33.7891V13.8267H34.5703ZM34.5703 13.8828V13.8267H33.7891V13.8828H34.5703ZM34.5703 13.9386V13.8828H33.7891V13.9386H34.5703ZM34.5703 13.9944V13.9386H33.7891V13.9944H34.5703ZM34.5703 14.05V13.9944H33.7891V14.05H34.5703ZM34.5703 14.1055V14.05H33.7891V14.1055H34.5703ZM34.5703 14.1608V14.1055H33.7891V14.1608H34.5703ZM34.5703 14.216V14.1608H33.7891V14.216H34.5703ZM34.5703 14.2711V14.216H33.7891V14.2711H34.5703ZM34.5703 14.3261V14.2711H33.7891V14.3261H34.5703ZM34.5703 14.3809V14.3261H33.7891V14.3809H34.5703ZM34.5703 14.4355V14.3809H33.7891V14.4355H34.5703ZM34.5703 14.4901V14.4355H33.7891V14.4901H34.5703ZM34.5703 14.5445V14.4901H33.7891V14.5445H34.5703ZM34.5703 14.5987V14.5445H33.7891V14.5987H34.5703ZM34.5703 14.6529V14.5987H33.7891V14.6529H34.5703ZM34.5703 14.7069V14.6529H33.7891V14.7069H34.5703ZM34.5703 14.7607V14.7069H33.7891V14.7607H34.5703ZM34.5703 14.8145V14.7607H33.7891V14.8145H34.5703ZM34.5703 14.868V14.8145H33.7891V14.868H34.5703ZM34.5703 14.9215V14.868H33.7891V14.9215H34.5703ZM34.5703 14.9748V14.9215H33.7891V14.9748H34.5703ZM34.5703 15.028V14.9748H33.7891V15.028H34.5703ZM34.5703 15.0811V15.028H33.7891V15.0811H34.5703ZM34.5703 15.134V15.0811H33.7891V15.134H34.5703ZM34.5703 15.1868V15.134H33.7891V15.1868H34.5703ZM34.5703 15.2394V15.1868H33.7891V15.2394H34.5703ZM34.5703 15.292V15.2394H33.7891V15.292H34.5703ZM34.5703 15.3443V15.292H33.7891V15.3443H34.5703ZM34.5703 15.3966V15.3443H33.7891V15.3966H34.5703ZM34.5703 15.4487V15.3966H33.7891V15.4487H34.5703ZM34.5703 15.5007V15.4487H33.7891V15.5007H34.5703ZM34.5703 15.5526V15.5007H33.7891V15.5526H34.5703ZM34.5703 15.6043V15.5526H33.7891V15.6043H34.5703ZM34.5703 15.6559V15.6043H33.7891V15.6559H34.5703ZM34.5703 15.7073V15.6559H33.7891V15.7073H34.5703ZM34.5703 15.7586V15.7073H33.7891V15.7586H34.5703ZM34.5703 15.8098V15.7586H33.7891V15.8098H34.5703ZM34.5703 15.8609V15.8098H33.7891V15.8609H34.5703ZM34.5703 15.9118V15.8609H33.7891V15.9118H34.5703ZM34.5703 15.9626V15.9118H33.7891V15.9626H34.5703ZM34.5703 16.0132V15.9626H33.7891V16.0132H34.5703ZM34.5703 16.0637V16.0132H33.7891V16.0637H34.5703ZM34.5703 16.1141V16.0637H33.7891V16.1141H34.5703ZM34.5703 16.1644V16.1141H33.7891V16.1644H34.5703ZM34.5703 16.2145V16.1644H33.7891V16.2145H34.5703ZM34.5703 16.2645V16.2145H33.7891V16.2645H34.5703ZM34.5703 16.3143V16.2645H33.7891V16.3143H34.5703ZM34.5703 16.364V16.3143H33.7891V16.364H34.5703ZM34.5703 16.4136V16.364H33.7891V16.4136H34.5703ZM34.5703 16.4631V16.4136H33.7891V16.4631H34.5703ZM34.5703 16.5124V16.4631H33.7891V16.5124H34.5703ZM34.5703 16.5616V16.5124H33.7891V16.5616H34.5703ZM34.5703 16.6107V16.5616H33.7891V16.6107H34.5703ZM34.5703 16.6596V16.6107H33.7891V16.6596H34.5703ZM34.5703 16.7084V16.6596H33.7891V16.7084H34.5703ZM34.5703 16.7571V16.7084H33.7891V16.7571H34.5703ZM34.5703 16.8056V16.7571H33.7891V16.8056H34.5703ZM34.5703 16.854V16.8056H33.7891V16.854H34.5703ZM34.5703 16.9022V16.854H33.7891V16.9022H34.5703ZM34.5703 16.9504V16.9022H33.7891V16.9504H34.5703ZM34.5703 16.9984V16.9504H33.7891V16.9984H34.5703ZM34.5703 17.0463V16.9984H33.7891V17.0463H34.5703ZM34.5703 17.094V17.0463H33.7891V17.094H34.5703ZM34.5703 17.1416V17.094H33.7891V17.1416H34.5703ZM34.5703 17.1891V17.1416H33.7891V17.1891H34.5703ZM34.5703 17.2364V17.1891H33.7891V17.2364H34.5703ZM34.5703 17.2836V17.2364H33.7891V17.2836H34.5703ZM34.5703 17.3307V17.2836H33.7891V17.3307H34.5703ZM34.5703 17.3777V17.3307H33.7891V17.3777H34.5703ZM34.5703 17.4245V17.3777H33.7891V17.4245H34.5703ZM34.5703 17.4712V17.4245H33.7891V17.4712H34.5703ZM34.5703 17.5177V17.4712H33.7891V17.5177H34.5703ZM34.5703 17.5642V17.5177H33.7891V17.5642H34.5703ZM34.5703 17.6104V17.5642H33.7891V17.6104H34.5703ZM34.5703 17.6566V17.6104H33.7891V17.6566H34.5703ZM34.5703 17.7026V17.6566H33.7891V17.7026H34.5703ZM34.5703 17.7485V17.7026H33.7891V17.7485H34.5703ZM34.5703 17.7943V17.7485H33.7891V17.7943H34.5703ZM34.5703 17.84V17.7943H33.7891V17.84H34.5703ZM34.5703 17.8855V17.84H33.7891V17.8855H34.5703ZM34.5703 17.9308V17.8855H33.7891V17.9308H34.5703ZM34.5703 17.9761V17.9308H33.7891V17.9761H34.5703ZM34.5703 18.0212V17.9761H33.7891V18.0212H34.5703ZM34.5703 18.0662V18.0212H33.7891V18.0662H34.5703ZM34.5703 18.111V18.0662H33.7891V18.111H34.5703ZM34.5703 18.1558V18.111H33.7891V18.1558H34.5703ZM34.5703 18.2004V18.1558H33.7891V18.2004H34.5703ZM34.5703 18.2448V18.2004H33.7891V18.2448H34.5703ZM34.5703 18.2892V18.2448H33.7891V18.2892H34.5703ZM34.5703 18.3334V18.2892H33.7891V18.3334H34.5703ZM34.5703 18.3774V18.3334H33.7891V18.3774H34.5703ZM34.5703 18.4214V18.3774H33.7891V18.4214H34.5703ZM34.5703 18.4652V18.4214H33.7891V18.4652H34.5703ZM34.5703 18.5089V18.4652H33.7891V18.5089H34.5703ZM34.5703 18.5524V18.5089H33.7891V18.5524H34.5703ZM34.5703 18.5959V18.5524H33.7891V18.5959H34.5703ZM34.5703 18.6392V18.5959H33.7891V18.6392H34.5703ZM34.5703 18.6823V18.6392H33.7891V18.6823H34.5703ZM34.5703 18.7254V18.6823H33.7891V18.7254H34.5703ZM34.5703 18.7683V18.7254H33.7891V18.7683H34.5703ZM34.5703 18.8111V18.7683H33.7891V18.8111H34.5703ZM34.5703 18.8537V18.8111H33.7891V18.8537H34.5703ZM34.5703 18.8962V18.8537H33.7891V18.8962H34.5703ZM34.5703 18.9386V18.8962H33.7891V18.9386H34.5703ZM34.5703 18.9809V18.9386H33.7891V18.9809H34.5703ZM34.5703 19.023V18.9809H33.7891V19.023H34.5703ZM34.5703 19.065V19.023H33.7891V19.065H34.5703ZM34.5703 19.1069V19.065H33.7891V19.1069H34.5703ZM34.5703 19.1486V19.1069H33.7891V19.1486H34.5703ZM34.5703 19.1903V19.1486H33.7891V19.1903H34.5703ZM34.5703 19.2317V19.1903H33.7891V19.2317H34.5703ZM34.5703 19.2731V19.2317H33.7891V19.2731H34.5703ZM34.5703 19.3143V19.2731H33.7891V19.3143H34.5703ZM34.5703 19.3554V19.3143H33.7891V19.3554H34.5703ZM34.5703 19.3964V19.3554H33.7891V19.3964H34.5703ZM34.5703 19.4372V19.3964H33.7891V19.4372H34.5703ZM34.5703 19.478V19.4372H33.7891V19.478H34.5703ZM34.5703 19.5186V19.478H33.7891V19.5186H34.5703ZM34.5703 19.559V19.5186H33.7891V19.559H34.5703ZM34.5703 19.5993V19.559H33.7891V19.5993H34.5703ZM34.5703 19.6395V19.5993H33.7891V19.6395H34.5703ZM34.5703 19.6796V19.6395H33.7891V19.6796H34.5703ZM34.5703 19.7196V19.6796H33.7891V19.7196H34.5703ZM34.5703 19.7594V19.7196H33.7891V19.7594H34.5703ZM34.5703 19.7991V19.7594H33.7891V19.7991H34.5703ZM34.5703 19.8386V19.7991H33.7891V19.8386H34.5703ZM34.5703 19.8781V19.8386H33.7891V19.8781H34.5703ZM34.5703 19.9174V19.8781H33.7891V19.9174H34.5703ZM34.5703 19.9566V19.9174H33.7891V19.9566H34.5703ZM34.5703 19.9956V19.9566H33.7891V19.9956H34.5703ZM34.5703 20.0345V19.9956H33.7891V20.0345H34.5703ZM34.5703 20.0733V20.0345H33.7891V20.0733H34.5703ZM34.5703 20.112V20.0733H33.7891V20.112H34.5703ZM34.5703 20.1505V20.112H33.7891V20.1505H34.5703ZM34.5703 20.189V20.1505H33.7891V20.189H34.5703ZM34.5703 20.2272V20.189H33.7891V20.2272H34.5703ZM34.5703 20.2654V20.2272H33.7891V20.2654H34.5703ZM34.5703 20.3034V20.2654H33.7891V20.3034H34.5703ZM34.5703 20.3413V20.3034H33.7891V20.3413H34.5703ZM34.5703 20.3791V20.3413H33.7891V20.3791H34.5703ZM34.5703 20.4168V20.3791H33.7891V20.4168H34.5703ZM34.5703 20.4543V20.4168H33.7891V20.4543H34.5703ZM34.5703 20.4917V20.4543H33.7891V20.4917H34.5703ZM34.5703 20.529V20.4917H33.7891V20.529H34.5703ZM34.5703 20.5661V20.529H33.7891V20.5661H34.5703ZM34.5703 20.6031V20.5661H33.7891V20.6031H34.5703ZM34.5703 20.64V20.6031H33.7891V20.64H34.5703ZM34.5703 20.6768V20.64H33.7891V20.6768H34.5703ZM34.5703 20.7134V20.6768H33.7891V20.7134H34.5703ZM34.5703 20.7499V20.7134H33.7891V20.7499H34.5703ZM34.5703 20.7863V20.7499H33.7891V20.7863H34.5703ZM34.5703 20.8226V20.7863H33.7891V20.8226H34.5703ZM34.5703 20.8587V20.8226H33.7891V20.8587H34.5703ZM34.5703 20.8947V20.8587H33.7891V20.8947H34.5703ZM34.5703 20.9306V20.8947H33.7891V20.9306H34.5703ZM34.5703 20.9664V20.9306H33.7891V20.9664H34.5703ZM34.5703 21.002V20.9664H33.7891V21.002H34.5703ZM34.5703 21.0375V21.002H33.7891V21.0375H34.5703ZM34.5703 21.0729V21.0375H33.7891V21.0729H34.5703ZM34.5703 21.1081V21.0729H33.7891V21.1081H34.5703ZM34.5703 21.1432V21.1081H33.7891V21.1432H34.5703ZM34.5703 21.1782V21.1432H33.7891V21.1782H34.5703ZM34.5703 21.2131V21.1782H33.7891V21.2131H34.5703ZM34.5703 21.2479V21.2131H33.7891V21.2479H34.5703ZM34.5703 21.2825V21.2479H33.7891V21.2825H34.5703ZM34.5703 21.317V21.2825H33.7891V21.317H34.5703ZM34.5703 21.3514V21.317H33.7891V21.3514H34.5703ZM34.5703 21.3856V21.3514H33.7891V21.3856H34.5703ZM34.5703 21.4197V21.3856H33.7891V21.4197H34.5703ZM34.5703 21.4537V21.4197H33.7891V21.4537H34.5703ZM34.5703 21.4876V21.4537H33.7891V21.4876H34.5703ZM34.5703 21.5213V21.4876H33.7891V21.5213H34.5703ZM34.5703 21.555V21.5213H33.7891V21.555H34.5703ZM34.5703 21.5885V21.555H33.7891V21.5885H34.5703ZM34.5703 21.6218V21.5885H33.7891V21.6218H34.5703ZM34.5703 21.6551V21.6218H33.7891V21.6551H34.5703ZM34.5703 21.6882V21.6551H33.7891V21.6882H34.5703ZM34.5703 21.7212V21.6882H33.7891V21.7212H34.5703ZM34.5703 21.7541V21.7212H33.7891V21.7541H34.5703ZM34.5703 21.7868V21.7541H33.7891V21.7868H34.5703ZM34.5703 21.8194V21.7868H33.7891V21.8194H34.5703ZM34.5703 21.8519V21.8194H33.7891V21.8519H34.5703ZM34.5703 21.8843V21.8519H33.7891V21.8843H34.5703ZM34.5703 21.9166V21.8843H33.7891V21.9166H34.5703ZM34.5703 21.9487V21.9166H33.7891V21.9487H34.5703ZM34.5703 21.9807V21.9487H33.7891V21.9807H34.5703ZM34.5703 22.0126V21.9807H33.7891V22.0126H34.5703ZM34.5703 22.0443V22.0126H33.7891V22.0443H34.5703ZM34.5703 22.0759V22.0443H33.7891V22.0759H34.5703ZM34.5703 22.1075V22.0759H33.7891V22.1075H34.5703ZM34.5703 22.1388V22.1075H33.7891V22.1388H34.5703ZM34.5703 22.1701V22.1388H33.7891V22.1701H34.5703ZM34.5703 22.2012V22.1701H33.7891V22.2012H34.5703ZM34.5703 22.2322V22.2012H33.7891V22.2322H34.5703ZM34.5703 22.2631V22.2322H33.7891V22.2631H34.5703ZM34.5703 22.2939V22.2631H33.7891V22.2939H34.5703ZM34.5703 22.3245V22.2939H33.7891V22.3245H34.5703ZM34.5703 22.355V22.3245H33.7891V22.355H34.5703ZM34.5703 22.3854V22.355H33.7891V22.3854H34.5703ZM34.5703 22.4157V22.3854H33.7891V22.4157H34.5703ZM34.5703 22.4458V22.4157H33.7891V22.4458H34.5703ZM34.5703 22.4759V22.4458H33.7891V22.4759H34.5703ZM34.5703 22.5058V22.4759H33.7891V22.5058H34.5703ZM34.5703 22.5355V22.5058H33.7891V22.5355H34.5703ZM34.5703 22.5652V22.5355H33.7891V22.5652H34.5703ZM34.5703 22.5947V22.5652H33.7891V22.5947H34.5703ZM34.5703 22.6241V22.5947H33.7891V22.6241H34.5703ZM34.5703 22.6534V22.6241H33.7891V22.6534H34.5703ZM34.5703 22.6826V22.6534H33.7891V22.6826H34.5703ZM34.5703 22.7116V22.6826H33.7891V22.7116H34.5703ZM34.5703 22.7405V22.7116H33.7891V22.7405H34.5703ZM34.5703 22.7693V22.7405H33.7891V22.7693H34.5703ZM34.5703 22.798V22.7693H33.7891V22.798H34.5703ZM34.5703 22.8265V22.798H33.7891V22.8265H34.5703ZM34.5703 22.855V22.8265H33.7891V22.855H34.5703ZM34.5703 22.8833V22.855H33.7891V22.8833H34.5703ZM34.5703 22.9115V22.8833H33.7891V22.9115H34.5703ZM34.5703 22.9395V22.9115H33.7891V22.9395H34.5703ZM34.5703 22.9675V22.9395H33.7891V22.9675H34.5703ZM34.5703 22.9953V22.9675H33.7891V22.9953H34.5703ZM34.5703 23.023V22.9953H33.7891V23.023H34.5703ZM34.5703 23.0505V23.023H33.7891V23.0505H34.5703ZM34.5703 23.078V23.0505H33.7891V23.078H34.5703ZM34.5703 23.1053V23.078H33.7891V23.1053H34.5703ZM34.5703 23.1325V23.1053H33.7891V23.1325H34.5703ZM34.5703 23.1596V23.1325H33.7891V23.1596H34.5703ZM34.5703 23.1866V23.1596H33.7891V23.1866H34.5703ZM34.5703 23.2134V23.1866H33.7891V23.2134H34.5703ZM34.5703 23.2401V23.2134H33.7891V23.2401H34.5703ZM34.5703 23.2667V23.2401H33.7891V23.2667H34.5703ZM34.5703 23.2932V23.2667H33.7891V23.2932H34.5703ZM34.5703 23.3195V23.2932H33.7891V23.3195H34.5703ZM34.5703 23.3458V23.3195H33.7891V23.3458H34.5703ZM34.5703 23.3719V23.3458H33.7891V23.3719H34.5703ZM34.5703 23.3979V23.3719H33.7891V23.3979H34.5703ZM34.5703 23.4237V23.3979H33.7891V23.4237H34.5703ZM34.5703 23.4495V23.4237H33.7891V23.4495H34.5703ZM34.5703 23.4751V23.4495H33.7891V23.4751H34.5703ZM34.5703 23.5006V23.4751H33.7891V23.5006H34.5703ZM34.5703 23.526V23.5006H33.7891V23.526H34.5703ZM34.5703 23.5513V23.526H33.7891V23.5513H34.5703ZM34.5703 23.5764V23.5513H33.7891V23.5764H34.5703ZM34.5703 23.6014V23.5764H33.7891V23.6014H34.5703ZM34.5703 23.6263V23.6014H33.7891V23.6263H34.5703ZM34.5703 23.6511V23.6263H33.7891V23.6511H34.5703ZM34.5703 23.6758V23.6511H33.7891V23.6758H34.5703ZM34.5703 23.7003V23.6758H33.7891V23.7003H34.5703ZM34.5703 23.7247V23.7003H33.7891V23.7247H34.5703ZM34.5703 23.749V23.7247H33.7891V23.749H34.5703ZM34.5703 23.7732V23.749H33.7891V23.7732H34.5703ZM34.5703 23.7973V23.7732H33.7891V23.7973H34.5703ZM34.5703 23.8212V23.7973H33.7891V23.8212H34.5703ZM34.5703 23.845V23.8212H33.7891V23.845H34.5703ZM34.5703 23.8687V23.845H33.7891V23.8687H34.5703ZM34.5703 23.8923V23.8687H33.7891V23.8923H34.5703ZM34.5703 23.9158V23.8923H33.7891V23.9158H34.5703ZM34.5703 23.9391V23.9158H33.7891V23.9391H34.5703ZM34.5703 23.9623V23.9391H33.7891V23.9623H34.5703ZM34.5703 23.9854V23.9623H33.7891V23.9854H34.5703ZM34.5703 24.0084V23.9854H33.7891V24.0084H34.5703ZM34.5703 24.0313V24.0084H33.7891V24.0313H34.5703ZM34.5703 24.054V24.0313H33.7891V24.054H34.5703ZM34.5703 24.0766V24.054H33.7891V24.0766H34.5703ZM34.5703 24.0991V24.0766H33.7891V24.0991H34.5703ZM34.5703 24.1215V24.0991H33.7891V24.1215H34.5703ZM34.5703 24.1438V24.1215H33.7891V24.1438H34.5703ZM34.5703 24.1659V24.1438H33.7891V24.1659H34.5703ZM34.5703 24.1879V24.1659H33.7891V24.1879H34.5703ZM34.5703 24.2098V24.1879H33.7891V24.2098H34.5703ZM34.5703 24.2316V24.2098H33.7891V24.2316H34.5703ZM34.5703 24.2533V24.2316H33.7891V24.2533H34.5703ZM34.5703 24.2748V24.2533H33.7891V24.2748H34.5703ZM34.5703 24.2963V24.2748H33.7891V24.2963H34.5703ZM34.5703 24.3176V24.2963H33.7891V24.3176H34.5703ZM34.5703 24.3388V24.3176H33.7891V24.3388H34.5703ZM34.5703 24.3598V24.3388H33.7891V24.3598H34.5703ZM34.5703 24.3808V24.3598H33.7891V24.3808H34.5703ZM34.5703 24.4016V24.3808H33.7891V24.4016H34.5703ZM34.5703 24.4223V24.4016H33.7891V24.4223H34.5703ZM34.5703 24.4429V24.4223H33.7891V24.4429H34.5703ZM34.5703 24.4634V24.4429H33.7891V24.4634H34.5703ZM34.5703 24.4838V24.4634H33.7891V24.4838H34.5703ZM34.5703 24.504V24.4838H33.7891V24.504H34.5703ZM34.5703 24.5241V24.504H33.7891V24.5241H34.5703ZM34.5703 24.5441V24.5241H33.7891V24.5441H34.5703ZM34.5703 24.564V24.5441H33.7891V24.564H34.5703ZM34.5703 24.5838V24.564H33.7891V24.5838H34.5703ZM34.5703 24.6035V24.5838H33.7891V24.6035H34.5703ZM34.5703 24.623V24.6035H33.7891V24.623H34.5703ZM34.5703 24.6424V24.623H33.7891V24.6424H34.5703ZM34.5703 24.6617V24.6424H33.7891V24.6617H34.5703ZM34.5703 24.6809V24.6617H33.7891V24.6809H34.5703ZM34.5703 24.7V24.6809H33.7891V24.7H34.5703ZM34.5703 24.7189V24.7H33.7891V24.7189H34.5703ZM34.5703 24.7377V24.7189H33.7891V24.7377H34.5703ZM34.5703 24.7564V24.7377H33.7891V24.7564H34.5703ZM34.5703 24.775V24.7564H33.7891V24.775H34.5703ZM34.5703 24.7935V24.775H33.7891V24.7935H34.5703ZM34.5703 24.8119V24.7935H33.7891V24.8119H34.5703ZM34.5703 24.8301V24.8119H33.7891V24.8301H34.5703ZM34.5703 24.8482V24.8301H33.7891V24.8482H34.5703ZM34.5703 24.8662V24.8482H33.7891V24.8662H34.5703ZM34.5703 24.8841V24.8662H33.7891V24.8841H34.5703ZM34.5703 24.9019V24.8841H33.7891V24.9019H34.5703ZM34.5703 24.9196V24.9019H33.7891V24.9196H34.5703ZM34.5703 24.9371V24.9196H33.7891V24.9371H34.5703ZM34.5703 24.9545V24.9371H33.7891V24.9545H34.5703ZM34.5703 24.9718V24.9545H33.7891V24.9718H34.5703ZM34.5703 24.989V24.9718H33.7891V24.989H34.5703ZM34.5703 25.0061V24.989H33.7891V25.0061H34.5703ZM34.5703 25.023V25.0061H33.7891V25.023H34.5703ZM34.5703 25.0399V25.023H33.7891V25.0399H34.5703ZM34.5703 25.0566V25.0399H33.7891V25.0566H34.5703ZM34.5703 25.0732V25.0566H33.7891V25.0732H34.5703ZM34.5703 25.0897V25.0732H33.7891V25.0897H34.5703ZM34.5703 25.1061V25.0897H33.7891V25.1061H34.5703ZM34.5703 25.1223V25.1061H33.7891V25.1223H34.5703ZM34.5703 25.1385V25.1223H33.7891V25.1385H34.5703ZM34.5703 25.1545V25.1385H33.7891V25.1545H34.5703ZM34.5703 25.1704V25.1545H33.7891V25.1704H34.5703ZM34.5703 25.1862V25.1704H33.7891V25.1862H34.5703ZM34.5703 25.2019V25.1862H33.7891V25.2019H34.5703ZM34.5703 25.2174V25.2019H33.7891V25.2174H34.5703ZM34.5703 25.2329V25.2174H33.7891V25.2329H34.5703ZM34.5703 25.2482V25.2329H33.7891V25.2482H34.5703ZM34.5703 25.2634V25.2482H33.7891V25.2634H34.5703ZM34.5703 25.2785V25.2634H33.7891V25.2785H34.5703ZM34.5703 25.2935V25.2785H33.7891V25.2935H34.5703ZM34.5703 25.3084V25.2935H33.7891V25.3084H34.5703ZM34.5703 25.3231V25.3084H33.7891V25.3231H34.5703ZM34.5703 25.3378V25.3231H33.7891V25.3378H34.5703ZM34.5703 25.3523V25.3378H33.7891V25.3523H34.5703ZM34.5703 25.3667V25.3523H33.7891V25.3667H34.5703ZM34.5703 25.381V25.3667H33.7891V25.381H34.5703ZM34.5703 25.3952V25.381H33.7891V25.3952H34.5703ZM34.5703 25.4092V25.3952H33.7891V25.4092H34.5703ZM34.5703 25.4232V25.4092H33.7891V25.4232H34.5703ZM34.5703 25.437V25.4232H33.7891V25.437H34.5703ZM34.5703 25.4507V25.437H33.7891V25.4507H34.5703ZM34.5703 25.4643V25.4507H33.7891V25.4643H34.5703ZM34.5703 25.4778V25.4643H33.7891V25.4778H34.5703ZM34.5703 25.4912V25.4778H33.7891V25.4912H34.5703ZM34.5703 25.5V25.4912H33.7891V25.5H34.5703Z" fill="#E25F5F" mask="url(#path-2-inside-1_218_172)"/>
<rect y="30.1875" width="1.5625" height="37.1094" transform="rotate(-90 0 30.1875)" fill="#E25F5F"/>
<path d="M45.975 23.8906V5.6375H53.3438C54.75 5.6375 55.9172 5.85781 56.8453 6.29844C57.7734 6.72969 58.4672 7.31094 58.9266 8.04219C59.3859 8.77344 59.6156 9.58437 59.6156 10.475C59.6156 11.5062 59.325 12.3875 58.7438 13.1187C58.1719 13.85 57.3656 14.3656 56.325 14.6656C57.0094 14.8062 57.6234 15.0641 58.1672 15.4391C58.7109 15.8141 59.1375 16.2875 59.4469 16.8594C59.7656 17.4312 59.925 18.0875 59.925 18.8281C59.925 19.4094 59.8219 19.9953 59.6156 20.5859C59.4188 21.1766 59.0719 21.725 58.575 22.2312C58.0875 22.7281 57.4172 23.1312 56.5641 23.4406C55.7203 23.7406 54.6563 23.8906 53.3719 23.8906H45.975ZM49.2938 20.9937H53.2875C54.3469 20.9937 55.1203 20.7828 55.6078 20.3609C56.1047 19.9297 56.3531 19.3531 56.3531 18.6312C56.3531 17.9094 56.1 17.3328 55.5938 16.9016C55.0875 16.4609 54.3188 16.2406 53.2875 16.2406H49.2938V20.9937ZM49.2938 8.50625V13.3437H53.2031C54.1875 13.3437 54.9328 13.1281 55.4391 12.6969C55.9547 12.2562 56.2125 11.6562 56.2125 10.8969C56.2125 10.175 55.9594 9.59844 55.4531 9.16719C54.9563 8.72656 54.2156 8.50625 53.2313 8.50625H49.2938ZM64.2123 23.8906V4.59687H67.5311V23.8906H64.2123ZM78.1535 24.2844C76.9066 24.2844 75.777 24.0172 74.7645 23.4828C73.7613 22.9484 72.9645 22.1516 72.3738 21.0922C71.7832 20.0234 71.4879 18.6875 71.4879 17.0844C71.4879 15.4531 71.7832 14.1031 72.3738 13.0344C72.9645 11.9656 73.7613 11.1687 74.7645 10.6437C75.777 10.1187 76.9066 9.85625 78.1535 9.85625C79.3816 9.85625 80.4926 10.1187 81.4863 10.6437C82.4895 11.1687 83.2863 11.9656 83.877 13.0344C84.4676 14.1031 84.7629 15.4531 84.7629 17.0844C84.7629 18.6875 84.4676 20.0234 83.877 21.0922C83.2863 22.1516 82.4895 22.9484 81.4863 23.4828C80.4926 24.0172 79.3816 24.2844 78.1535 24.2844ZM78.041 21.3875C78.6973 21.3875 79.2785 21.2281 79.7848 20.9094C80.3004 20.5812 80.7035 20.0984 80.9941 19.4609C81.2941 18.8234 81.4441 18.0312 81.4441 17.0844C81.4441 15.6406 81.1582 14.5531 80.5863 13.8219C80.0238 13.0906 79.2504 12.725 78.266 12.725C77.6004 12.725 77.0098 12.8891 76.4941 13.2172C75.9785 13.5359 75.5707 14.0187 75.2707 14.6656C74.9801 15.3125 74.8348 16.1187 74.8348 17.0844C74.8348 18.5094 75.1207 19.5828 75.6926 20.3047C76.2738 21.0266 77.0566 21.3875 78.041 21.3875ZM93.8024 24.2844C92.4899 24.2844 91.3603 24.1063 90.4134 23.75C89.4759 23.3844 88.754 22.8641 88.2478 22.1891C87.7415 21.5047 87.4837 20.6844 87.4743 19.7281H90.5399C90.5681 20.4031 90.8353 20.8953 91.3415 21.2047C91.8478 21.5141 92.5368 21.6687 93.4087 21.6687C93.8868 21.6687 94.3087 21.5984 94.6743 21.4578C95.0493 21.3172 95.3399 21.125 95.5462 20.8812C95.7524 20.6375 95.8556 20.3656 95.8556 20.0656C95.8556 19.6812 95.7149 19.3812 95.4337 19.1656C95.1618 18.9406 94.7212 18.7344 94.1118 18.5469L91.1306 17.4781C90.0618 17.0937 89.2415 16.5875 88.6696 15.9594C88.0978 15.3312 87.8118 14.5812 87.8118 13.7094C87.8118 12.5562 88.3321 11.6281 89.3728 10.925C90.4228 10.2125 91.8243 9.85625 93.5774 9.85625C95.3212 9.85625 96.6665 10.2406 97.6134 11.0094C98.5696 11.7687 99.0618 12.7344 99.0899 13.9062H95.9681C95.9212 13.4562 95.7056 13.1 95.3212 12.8375C94.9368 12.575 94.3556 12.4437 93.5774 12.4437C92.8743 12.4437 92.3212 12.5891 91.9181 12.8797C91.5243 13.1609 91.3274 13.4937 91.3274 13.8781C91.3274 14.525 91.8806 15.0125 92.9868 15.3406L96.2212 16.55C97.2712 16.9062 98.0868 17.3656 98.6681 17.9281C99.2493 18.4906 99.5399 19.2031 99.5399 20.0656C99.5399 20.7875 99.2962 21.4719 98.8087 22.1187C98.3306 22.7562 97.6603 23.2766 96.7978 23.6797C95.9353 24.0828 94.9368 24.2844 93.8024 24.2844ZM108.634 24.2844C107.321 24.2844 106.192 24.1063 105.245 23.75C104.307 23.3844 103.586 22.8641 103.079 22.1891C102.573 21.5047 102.315 20.6844 102.306 19.7281H105.371C105.4 20.4031 105.667 20.8953 106.173 21.2047C106.679 21.5141 107.368 21.6687 108.24 21.6687C108.718 21.6687 109.14 21.5984 109.506 21.4578C109.881 21.3172 110.171 21.125 110.378 20.8812C110.584 20.6375 110.687 20.3656 110.687 20.0656C110.687 19.6812 110.546 19.3812 110.265 19.1656C109.993 18.9406 109.553 18.7344 108.943 18.5469L105.962 17.4781C104.893 17.0937 104.073 16.5875 103.501 15.9594C102.929 15.3312 102.643 14.5812 102.643 13.7094C102.643 12.5562 103.164 11.6281 104.204 10.925C105.254 10.2125 106.656 9.85625 108.409 9.85625C110.153 9.85625 111.498 10.2406 112.445 11.0094C113.401 11.7687 113.893 12.7344 113.921 13.9062H110.8C110.753 13.4562 110.537 13.1 110.153 12.8375C109.768 12.575 109.187 12.4437 108.409 12.4437C107.706 12.4437 107.153 12.5891 106.75 12.8797C106.356 13.1609 106.159 13.4937 106.159 13.8781C106.159 14.525 106.712 15.0125 107.818 15.3406L111.053 16.55C112.103 16.9062 112.918 17.3656 113.5 17.9281C114.081 18.4906 114.371 19.2031 114.371 20.0656C114.371 20.7875 114.128 21.4719 113.64 22.1187C113.162 22.7562 112.492 23.2766 111.629 23.6797C110.767 24.0828 109.768 24.2844 108.634 24.2844ZM123.747 24.2844C122.5 24.2844 121.37 24.0172 120.358 23.4828C119.355 22.9484 118.558 22.1516 117.967 21.0922C117.376 20.0234 117.081 18.6875 117.081 17.0844C117.081 15.4531 117.376 14.1031 117.967 13.0344C118.558 11.9656 119.355 11.1687 120.358 10.6437C121.37 10.1187 122.5 9.85625 123.747 9.85625C124.975 9.85625 126.086 10.1187 127.08 10.6437C128.083 11.1687 128.88 11.9656 129.47 13.0344C130.061 14.1031 130.356 15.4531 130.356 17.0844C130.356 18.6875 130.061 20.0234 129.47 21.0922C128.88 22.1516 128.083 22.9484 127.08 23.4828C126.086 24.0172 124.975 24.2844 123.747 24.2844ZM123.634 21.3875C124.291 21.3875 124.872 21.2281 125.378 20.9094C125.894 20.5812 126.297 20.0984 126.587 19.4609C126.887 18.8234 127.037 18.0312 127.037 17.0844C127.037 15.6406 126.751 14.5531 126.18 13.8219C125.617 13.0906 124.844 12.725 123.859 12.725C123.194 12.725 122.603 12.8891 122.087 13.2172C121.572 13.5359 121.164 14.0187 120.864 14.6656C120.573 15.3125 120.428 16.1187 120.428 17.0844C120.428 18.5094 120.714 19.5828 121.286 20.3047C121.867 21.0266 122.65 21.3875 123.634 21.3875ZM152.839 23.8906V15.9031C152.839 14.8906 152.596 14.1266 152.108 13.6109C151.621 13.0953 150.983 12.8375 150.196 12.8375C149.202 12.8375 148.419 13.2406 147.847 14.0469C147.275 14.8531 146.989 16.0719 146.989 17.7031H145.611C145.611 16.2687 145.743 15.0547 146.005 14.0609C146.277 13.0578 146.657 12.2516 147.144 11.6422C147.641 11.0234 148.222 10.5734 148.888 10.2922C149.554 10.0016 150.289 9.85625 151.096 9.85625C152.211 9.85625 153.144 10.1094 153.894 10.6156C154.654 11.1125 155.225 11.8156 155.61 12.725C155.994 13.6344 156.186 14.6937 156.186 15.9031V23.8906H152.839ZM134.305 23.8906V10.25H137.202L137.568 12.5844C138.018 11.675 138.613 10.9953 139.354 10.5453C140.094 10.0859 140.943 9.85625 141.899 9.85625C143.024 9.85625 143.961 10.1094 144.711 10.6156C145.471 11.1125 146.038 11.8156 146.413 12.725C146.797 13.6344 146.989 14.6937 146.989 15.9031V23.8906H143.671V15.9031C143.671 14.8906 143.427 14.1266 142.939 13.6109C142.452 13.0953 141.814 12.8375 141.027 12.8375C140.361 12.8375 139.771 13.0203 139.255 13.3859C138.749 13.7516 138.35 14.3047 138.06 15.0453C137.769 15.7766 137.624 16.6906 137.624 17.7875V23.8906H134.305Z" fill="#E25F5F"/>
</svg>
